<?xml version="1.0" encoding="UTF-8" standalone="no"?>
<!-- Created with Inkscape (http://www.inkscape.org/) -->

<svg
   xmlns:dc="http://purl.org/dc/elements/1.1/"
   xmlns:cc="http://creativecommons.org/ns#"
   xmlns:rdf="http://www.w3.org/1999/02/22-rdf-syntax-ns#"
   xmlns:svg="http://www.w3.org/2000/svg"
   xmlns="http://www.w3.org/2000/svg"
   xmlns:sodipodi="http://sodipodi.sourceforge.net/DTD/sodipodi-0.dtd"
   xmlns:inkscape="http://www.inkscape.org/namespaces/inkscape"
   width="150.22649"
   height="379.99997"
   viewBox="0 0 39.747425 100.54168"
   version="1.1"
   id="svg4541"
   sodipodi:docname="BitCrush.svg"
   inkscape:version="0.92.2 (5c3e80d, 2017-08-06)">
  <defs
     id="defs4535" />
  <sodipodi:namedview
     id="base"
     pagecolor="#ffffff"
     bordercolor="#666666"
     borderopacity="1.0"
     inkscape:pageopacity="0.0"
     inkscape:pageshadow="2"
     inkscape:zoom="2.8"
     inkscape:cx="106.57269"
     inkscape:cy="212.41369"
     inkscape:document-units="mm"
     inkscape:current-layer="g13383"
     showgrid="false"
     fit-margin-top="0"
     fit-margin-left="0"
     fit-margin-right="0"
     fit-margin-bottom="0"
     inkscape:window-width="1440"
     inkscape:window-height="851"
     inkscape:window-x="0"
     inkscape:window-y="23"
     inkscape:window-maximized="0"
     units="px" />
  <metadata
     id="metadata4538">
    <rdf:RDF>
      <cc:Work
         rdf:about="">
        <dc:format>image/svg+xml</dc:format>
        <dc:type
           rdf:resource="http://purl.org/dc/dcmitype/StillImage" />
        <dc:title></dc:title>
      </cc:Work>
    </rdf:RDF>
  </metadata>
  <g
     inkscape:label="Layer 1"
     inkscape:groupmode="layer"
     id="layer1"
     transform="translate(5.559749,-98.968292)">
    <g
       transform="matrix(0.27602379,0,0,0.27602379,354.09618,57.736346)"
       id="g13122"
       style="stroke-width:0.9585526">
      <g
         transform="translate(-167.07644,-20.557569)"
         id="g13178"
         style="stroke-width:0.91882312">
        <g
           transform="translate(-99.2314,6.0949065)"
           id="g13224"
           style="stroke-width:0.88074034">
          <g
             transform="translate(-315.65411,137.78158)"
             id="g13271"
             style="stroke-width:0.84423596">
            <g
               transform="translate(-332.2261,26.059316)"
               id="g13383"
               style="stroke-width:0.80924457">
              <path
                 style="fill:#e6e6e6;fill-opacity:1;fill-rule:nonzero;stroke:none;stroke-width:0.80924457"
                 d="m -388.5352,0.265625 h 143.46875 V 363.98828 H -388.5352 Z m 0,0"
                 id="path25069"
                 inkscape:connector-curvature="0" />
              <path
                 style="fill:#212121;fill-opacity:1;fill-rule:nonzero;stroke:none;stroke-width:0.80924457"
                 d="m -258.07817,127.82422 c 0,-1.55859 -1.27734,-2.83203 -2.83594,-2.83203 h -21.77343 c -1.5586,0 -2.83594,1.27344 -2.83594,2.83203 v 34.50781 c 0,1.5586 1.27734,2.83203 2.83594,2.83203 h 21.77343 c 1.5586,0 2.83594,-1.27343 2.83594,-2.83203 z m 0,0"
                 id="path25479"
                 inkscape:connector-curvature="0" />
              <path
                 inkscape:connector-curvature="0"
                 id="path12226"
                 d="m -276.57518,211.05859 c 1.40625,0 2.4375,-1.0625 2.4375,-2.35937 0,-1.29688 -1.01562,-2.34375 -2.42187,-2.34375 -1.40625,0 -2.42188,1.0625 -2.42188,2.34375 v 0.0156 c 0,1.29688 1.01563,2.34375 2.40625,2.34375 z m 0.0156,-0.92187 c -0.79688,0 -1.375,-0.65625 -1.375,-1.4375 0,-0.78125 0.5625,-1.42188 1.35937,-1.42188 0.8125,0 1.39063,0.64063 1.39063,1.42188 v 0.0156 c 0,0.78125 -0.5625,1.42188 -1.375,1.42188 z m 0,0"
                 style="fill:#e6e6e6;fill-opacity:1;stroke:none;stroke-width:0.80924457" />
              <path
                 inkscape:connector-curvature="0"
                 id="path12222"
                 d="m -271.14238,211.05859 c 1.23438,0 2,-0.6875 2,-2.0625 v -2.10937 c 0,-0.28125 -0.21875,-0.5 -0.5,-0.5 -0.28125,0 -0.5,0.21875 -0.5,0.5 v 2.15625 c 0,0.71875 -0.375,1.09375 -0.98437,1.09375 -0.60938,0 -0.98438,-0.39063 -0.98438,-1.125 v -2.125 c 0,-0.28125 -0.21875,-0.5 -0.5,-0.5 -0.26562,0 -0.5,0.21875 -0.5,0.5 v 2.14062 c 0,1.34375 0.75,2.03125 1.96875,2.03125 z m 0,0"
                 style="fill:#e6e6e6;fill-opacity:1;stroke:none;stroke-width:0.80924457" />
              <path
                 inkscape:connector-curvature="0"
                 id="path12218"
                 d="m -266.8745,210.51172 c 0,0.28125 0.21875,0.5 0.5,0.5 0.28125,0 0.5,-0.21875 0.5,-0.5 v -3.15625 h 0.95313 c 0.26562,0 0.46875,-0.20313 0.46875,-0.46875 0,-0.25 -0.20313,-0.45313 -0.46875,-0.45313 h -2.92188 c -0.25,0 -0.45312,0.20313 -0.45312,0.45313 0,0.26562 0.20312,0.46875 0.45312,0.46875 h 0.96875 z m 0,0"
                 style="fill:#e6e6e6;fill-opacity:1;stroke:none;stroke-width:0.80924457" />
              <path
                 inkscape:connector-curvature="0"
                 id="path12214"
                 d="m -276.57518,288.43838 c 1.40625,0 2.4375,-1.0625 2.4375,-2.35937 0,-1.29688 -1.01562,-2.34375 -2.42187,-2.34375 -1.40625,0 -2.42188,1.0625 -2.42188,2.34375 v 0.0156 c 0,1.29688 1.01563,2.34375 2.40625,2.34375 z m 0.0156,-0.92187 c -0.79688,0 -1.375,-0.65625 -1.375,-1.4375 0,-0.78125 0.5625,-1.42188 1.35937,-1.42188 0.8125,0 1.39063,0.64063 1.39063,1.42188 v 0.0156 c 0,0.78125 -0.5625,1.42188 -1.375,1.42188 z m 0,0"
                 style="fill:#e6e6e6;fill-opacity:1;stroke:none;stroke-width:0.80924457" />
              <path
                 inkscape:connector-curvature="0"
                 id="path12210"
                 d="m -271.14238,288.43838 c 1.23438,0 2,-0.6875 2,-2.0625 v -2.10937 c 0,-0.28125 -0.21875,-0.5 -0.5,-0.5 -0.28125,0 -0.5,0.21875 -0.5,0.5 v 2.15625 c 0,0.71875 -0.375,1.09375 -0.98437,1.09375 -0.60938,0 -0.98438,-0.39063 -0.98438,-1.125 v -2.125 c 0,-0.28125 -0.21875,-0.5 -0.5,-0.5 -0.26562,0 -0.5,0.21875 -0.5,0.5 v 2.14062 c 0,1.34375 0.75,2.03125 1.96875,2.03125 z m 0,0"
                 style="fill:#e6e6e6;fill-opacity:1;stroke:none;stroke-width:0.80924457" />
              <path
                 inkscape:connector-curvature="0"
                 id="path12206"
                 d="m -266.8745,287.89151 c 0,0.28125 0.21875,0.5 0.5,0.5 0.28125,0 0.5,-0.21875 0.5,-0.5 v -3.15625 h 0.95313 c 0.26562,0 0.46875,-0.20313 0.46875,-0.46875 0,-0.25 -0.20313,-0.45313 -0.46875,-0.45313 h -2.92188 c -0.25,0 -0.45312,0.20313 -0.45312,0.45313 0,0.26562 0.20312,0.46875 0.45312,0.46875 h 0.96875 z m 0,0"
                 style="fill:#e6e6e6;fill-opacity:1;stroke:none;stroke-width:0.80924457" />
              <path
                 inkscape:connector-curvature="0"
                 id="path12202"
                 d="m -276.57518,61.623993 c 1.40625,0 2.4375,-1.0625 2.4375,-2.359375 0,-1.296875 -1.01562,-2.34375 -2.42187,-2.34375 -1.40625,0 -2.42188,1.0625 -2.42188,2.34375 v 0.01563 c 0,1.296875 1.01563,2.34375 2.40625,2.34375 z m 0.0156,-0.921875 c -0.79688,0 -1.375,-0.65625 -1.375,-1.4375 0,-0.78125 0.5625,-1.421875 1.35937,-1.421875 0.8125,0 1.39063,0.640625 1.39063,1.421875 v 0.01563 c 0,0.78125 -0.5625,1.421875 -1.375,1.421875 z m 0,0"
                 style="fill:#e6e6e6;fill-opacity:1;stroke:none;stroke-width:0.80924457" />
              <path
                 inkscape:connector-curvature="0"
                 id="path12198"
                 d="m -271.14238,61.623993 c 1.23438,0 2,-0.6875 2,-2.0625 v -2.109375 c 0,-0.28125 -0.21875,-0.5 -0.5,-0.5 -0.28125,0 -0.5,0.21875 -0.5,0.5 v 2.15625 c 0,0.71875 -0.375,1.09375 -0.98437,1.09375 -0.60938,0 -0.98438,-0.390625 -0.98438,-1.125 v -2.125 c 0,-0.28125 -0.21875,-0.5 -0.5,-0.5 -0.26562,0 -0.5,0.21875 -0.5,0.5 v 2.140625 c 0,1.34375 0.75,2.03125 1.96875,2.03125 z m 0,0"
                 style="fill:#e6e6e6;fill-opacity:1;stroke:none;stroke-width:0.80924457" />
              <path
                 inkscape:connector-curvature="0"
                 id="path12194"
                 d="m -266.8745,61.077118 c 0,0.28125 0.21875,0.5 0.5,0.5 0.28125,0 0.5,-0.21875 0.5,-0.5 v -3.15625 h 0.95313 c 0.26562,0 0.46875,-0.203125 0.46875,-0.46875 0,-0.25 -0.20313,-0.453125 -0.46875,-0.453125 h -2.92188 c -0.25,0 -0.45312,0.203125 -0.45312,0.453125 0,0.265625 0.20312,0.46875 0.45312,0.46875 h 0.96875 z m 0,0"
                 style="fill:#e6e6e6;fill-opacity:1;stroke:none;stroke-width:0.80924457" />
              <path
                 style="fill:none;stroke:#000000;stroke-width:0.47927633;stroke-linecap:round;stroke-linejoin:round;stroke-miterlimit:10;stroke-opacity:1"
                 d="m -316.80083,150.32813 h 45"
                 id="path25527"
                 inkscape:connector-curvature="0" />
              <path
                 style="fill:none;stroke:#000000;stroke-width:0.47927633;stroke-linecap:round;stroke-linejoin:round;stroke-miterlimit:10;stroke-opacity:1"
                 d="m -356.12895,168.32813 39.92578,-17.77735 -39.92578,-18.22656"
                 id="path25541"
                 inkscape:connector-curvature="0" />
              <g
                 aria-label="BitCrush"
                 transform="matrix(0.60437704,0,0,0.60437704,-300.15299,14.124478)"
                 style="font-style:normal;font-weight:normal;font-size:40px;line-height:1.25;font-family:sans-serif;letter-spacing:0px;word-spacing:0px;fill:#000000;fill-opacity:1;stroke:none"
                 id="flowRoot192">
                <path
                   d="m -74.865156,10.155791 h 5.96 q 1.96,0 3.32,0.6 1.4,0.6 2.28,1.6 0.88,1 1.24,2.32 0.4,1.28 0.4,2.68 v 1.04 q 0,1.16 -0.2,1.96 -0.16,0.8 -0.52,1.4 -0.36,0.6 -0.88,1.08 -0.52,0.44 -1.2,0.84 1.44,0.68 2.12,2.04 0.68,1.32 0.68,3.56 v 1.6 q 0,3.76 -1.84,5.76 -1.8,2 -5.8,2 h -5.56 z m 4.08,24.4 h 1.76 q 1.24,0 1.92,-0.36 0.72,-0.36 1.08,-1 0.36,-0.64 0.44,-1.52 0.08,-0.88 0.08,-1.92 0,-1.08 -0.12,-1.88 -0.12,-0.8 -0.52,-1.32 -0.36,-0.56 -1.04,-0.84 -0.68,-0.28 -1.8,-0.28 h -1.8 z m 0,-12.72 h 1.84 q 2.04,0 2.72,-1 0.72,-1.04 0.72,-3 0,-1.92 -0.8,-2.88 -0.76,-0.96 -2.8,-0.96 h -1.68 z"
                   style="font-style:normal;font-variant:normal;font-weight:normal;font-stretch:normal;font-family:'DIN Condensed';-inkscape-font-specification:'DIN Condensed, '"
                   id="path45" />
                <path
                   d="m -58.073906,18.355791 h 4.08 v 20.28 h -4.08 z m 0,-8.2 h 4.08 v 4.08 h -4.08 z"
                   style="font-style:normal;font-variant:normal;font-weight:normal;font-stretch:normal;font-family:'DIN Condensed';-inkscape-font-specification:'DIN Condensed, '"
                   id="path47" />
                <path
                   d="m -50.652031,12.195791 h 4.08 v 6.16 h 2.52 v 3.2 h -2.52 v 11.24 q 0,0.72 0.12,1.12 0.16,0.4 0.44,0.6 0.32,0.2 0.8,0.24 0.48,0.04 1.16,0.04 v 3.84 h -1.68 q -1.4,0 -2.36,-0.44 -0.92,-0.44 -1.48,-1.12 -0.56,-0.68 -0.84,-1.52 -0.24,-0.88 -0.24,-1.68 v -12.32 h -2.04 v -3.2 h 2.04 z"
                   style="font-style:normal;font-variant:normal;font-weight:normal;font-stretch:normal;font-family:'DIN Condensed';-inkscape-font-specification:'DIN Condensed, '"
                   id="path49" />
                <path
                   d="m -29.327031,32.275791 q 0,1.32 -0.52,2.52 -0.48,1.2 -1.36,2.12 -0.88,0.88 -2.08,1.44 -1.16,0.52 -2.52,0.52 -1.16,0 -2.36,-0.32 -1.2,-0.32 -2.16,-1.08 -0.96,-0.8 -1.6,-2.08 -0.6,-1.28 -0.6,-3.24 v -15.68 q 0,-1.4 0.48,-2.6 0.48,-1.2 1.36,-2.08 0.88,-0.88 2.08,-1.36 1.24,-0.5200002 2.72,-0.5200002 1.4,0 2.6,0.5200002 1.2,0.48 2.08,1.4 0.88,0.88 1.36,2.16 0.52,1.24 0.52,2.72 v 1.6 h -4.08 v -1.36 q 0,-1.2 -0.68,-2.08 -0.68,-0.88 -1.84,-0.88 -1.52,0 -2.04,0.96 -0.48,0.92 -0.48,2.36 v 14.56 q 0,1.24 0.52,2.08 0.56,0.84 1.96,0.84 0.4,0 0.84,-0.12 0.48,-0.16 0.84,-0.48 0.4,-0.32 0.64,-0.88 0.24,-0.56 0.24,-1.4 v -1.4 h 4.08 z"
                   style="font-style:normal;font-variant:normal;font-weight:normal;font-stretch:normal;font-family:'DIN Condensed';-inkscape-font-specification:'DIN Condensed, '"
                   id="path51" />
                <path
                   d="m -26.277031,18.355791 h 4.08 v 2.16 q 1.24,-1.12 2.44,-1.76 1.2,-0.64 2.96,-0.64 v 4.32 q -0.6,-0.24 -1.24,-0.24 -0.64,0 -1.4,0.24 -0.72,0.2 -1.36,0.72 -0.6,0.52 -1,1.36 -0.4,0.84 -0.4,2.08 v 12.04 h -4.08 z"
                   style="font-style:normal;font-variant:normal;font-weight:normal;font-stretch:normal;font-family:'DIN Condensed';-inkscape-font-specification:'DIN Condensed, '"
                   id="path53" />
                <path
                   d="m -2.9832812,38.635791 h -4.08 v -1.96 h -0.08 q -0.6399999,0.96 -1.56,1.6 -0.88,0.6 -2.2799997,0.6 -0.76,0 -1.52,-0.24 -0.76,-0.28 -1.36,-0.88 -0.6,-0.6 -0.96,-1.52 -0.36,-0.96 -0.36,-2.32 v -15.56 h 4.08 v 14.04 q 0,1.12 0.52,1.76 0.52,0.64 1.4799997,0.64 1.1600001,0 1.6000001,-0.72 0.44,-0.72 0.44,-2.08 v -13.64 h 4.08 z"
                   style="font-style:normal;font-variant:normal;font-weight:normal;font-stretch:normal;font-family:'DIN Condensed';-inkscape-font-specification:'DIN Condensed, '"
                   id="path55" />
                <path
                   d="m 7.7635937,24.035791 q -0.04,-1.04 -0.6799999,-1.56 -0.6,-0.52 -1.4,-0.52 -0.9600001,0 -1.48,0.64 -0.52,0.6 -0.52,1.4 0,0.56 0.28,1.12 0.28,0.52 1.44,0.96 l 2.4,0.96 q 2.2800002,0.88 3.1200002,2.4 0.88,1.52 0.88,3.32 0,1.28 -0.48,2.4 -0.44,1.08 -1.24,1.92 -0.8000002,0.84 -1.9200002,1.32 -1.1200001,0.48 -2.4400001,0.48 -1.2,0 -2.2799999,-0.4 -1.0800001,-0.4 -1.92,-1.16 -0.80000005,-0.76 -1.32000005,-1.88 -0.52,-1.16 -0.56,-2.68 H 3.4835937 q 0.1200001,0.84 0.5600001,1.56 0.4799999,0.72 1.64,0.72 0.88,0 1.56,-0.56 0.72,-0.6 0.72,-1.64 0,-0.84 -0.4400001,-1.44 -0.4399999,-0.6 -1.6,-1.04 l -1.9599999,-0.72 q -1.92,-0.72 -3.04000005,-2.12 -1.08,-1.44 -1.08,-3.48 0,-1.28 0.48,-2.36 0.48,-1.12 1.27999995,-1.88 0.84,-0.8 1.92,-1.24 1.08,-0.44 2.32,-0.44 1.2400001,0 2.2800001,0.48 1.08,0.44 1.84,1.24 0.7600002,0.76 1.2000002,1.88 0.44,1.08 0.44,2.32 z"
                   style="font-style:normal;font-variant:normal;font-weight:normal;font-stretch:normal;font-family:'DIN Condensed';-inkscape-font-specification:'DIN Condensed, '"
                   id="path57" />
                <path
                   d="m 14.426094,10.155791 h 4.08 v 10.16 h 0.08 q 0.64,-0.96 1.52,-1.56 0.92,-0.64 2.32,-0.64 0.76,0 1.52,0.28 0.76,0.24 1.36,0.84 0.6,0.6 0.96,1.56 0.36,0.92 0.36,2.28 v 15.56 h -4.08 v -14.04 q 0,-1.12 -0.52,-1.76 -0.52,-0.64 -1.48,-0.64 -1.16,0 -1.6,0.72 -0.44,0.72 -0.44,2.08 v 13.64 h -4.08 z"
                   style="font-style:normal;font-variant:normal;font-weight:normal;font-stretch:normal;font-family:'DIN Condensed';-inkscape-font-specification:'DIN Condensed, '"
                   id="path59" />
              </g>
              <g
                 aria-label="IN"
                 transform="scale(1,-1)"
                 style="font-style:normal;font-weight:normal;font-size:10.8135519px;line-height:1.25;font-family:sans-serif;letter-spacing:0px;word-spacing:0px;fill:#000000;fill-opacity:1;stroke:none;stroke-width:0.21877021"
                 id="text202">
                <path
                   d="m -380.68325,-134.45276 h 1.10298 v 7.69925 h -1.10298 z"
                   style="font-style:normal;font-variant:normal;font-weight:normal;font-stretch:normal;font-family:'DIN Condensed';-inkscape-font-specification:'DIN Condensed, ';stroke-width:0.21877021"
                   id="path62" />
                <path
                   d="m -378.56244,-134.45276 h 1.05973 l 1.66528,4.63902 h 0.0216 v -4.63902 h 1.10298 v 7.69925 h -1.0381 l -1.68691,-4.6282 h -0.0216 v 4.6282 h -1.10298 z"
                   style="font-style:normal;font-variant:normal;font-weight:normal;font-stretch:normal;font-family:'DIN Condensed';-inkscape-font-specification:'DIN Condensed, ';stroke-width:0.21877021"
                   id="path64" />
              </g>
              <g
                 aria-label="CV"
                 style="font-style:normal;font-weight:normal;font-size:10.81355095px;line-height:1.25;font-family:sans-serif;letter-spacing:0px;word-spacing:0px;fill:#000000;fill-opacity:1;stroke:none;stroke-width:0.21877019"
                 id="text202-7">
                <path
                   d="m -377.70233,167.48058 q 0,0.35685 -0.14058,0.68126 -0.12976,0.3244 -0.36766,0.57311 -0.2379,0.2379 -0.56231,0.38929 -0.31359,0.14058 -0.68125,0.14058 -0.31359,0 -0.638,-0.0865 -0.32441,-0.0865 -0.58393,-0.29197 -0.25953,-0.21627 -0.43254,-0.5623 -0.16221,-0.34604 -0.16221,-0.8759 v -4.23891 q 0,-0.37848 0.12977,-0.70288 0.12976,-0.32441 0.36766,-0.56231 0.2379,-0.23789 0.5623,-0.36766 0.33522,-0.14057 0.73532,-0.14057 0.37848,0 0.70288,0.14057 0.32441,0.12977 0.56231,0.37848 0.2379,0.23789 0.36766,0.58393 0.14058,0.33522 0.14058,0.73532 v 0.43254 h -1.10299 v -0.36766 q 0,-0.32441 -0.18383,-0.5623 -0.18383,-0.2379 -0.49742,-0.2379 -0.41092,0 -0.55149,0.25952 -0.12976,0.24872 -0.12976,0.638 v 3.93614 q 0,0.33522 0.14057,0.5623 0.15139,0.22709 0.52987,0.22709 0.10813,0 0.22708,-0.0325 0.12976,-0.0433 0.22709,-0.12976 0.10813,-0.0865 0.17301,-0.2379 0.0649,-0.15139 0.0649,-0.37847 v -0.37847 h 1.10299 z"
                   style="font-style:normal;font-variant:normal;font-weight:normal;font-stretch:normal;font-family:'DIN Condensed';-inkscape-font-specification:'DIN Condensed, ';stroke-width:0.21877019"
                   id="path74" />
                <path
                   d="m -374.65021,169.19994 h -0.97322 l -1.56796,-7.69925 h 1.16786 l 0.8759,5.37433 h 0.0216 l 0.88671,-5.37433 h 1.16787 z"
                   style="font-style:normal;font-variant:normal;font-weight:normal;font-stretch:normal;font-family:'DIN Condensed';-inkscape-font-specification:'DIN Condensed, ';stroke-width:0.21877019"
                   id="path76" />
              </g>
              <g
                 aria-label="OUT"
                 style="font-style:normal;font-weight:normal;font-size:10.81355px;line-height:1.25;font-family:sans-serif;letter-spacing:0px;word-spacing:0px;fill:#ececec;fill-opacity:1;stroke:none;stroke-width:0.21877018"
                 id="text202-7-8">
                <path
                   d="m -277.39501,128.80963 q 0,-0.46498 0.1622,-0.82183 0.1622,-0.35685 0.42173,-0.58393 0.27034,-0.2379 0.59474,-0.35685 0.33522,-0.11895 0.67044,-0.11895 0.33522,0 0.65963,0.11895 0.33522,0.11895 0.59475,0.35685 0.27033,0.22708 0.43254,0.58393 0.1622,0.35685 0.1622,0.82183 v 4.06589 q 0,0.4758 -0.1622,0.83265 -0.16221,0.34603 -0.43254,0.58393 -0.25953,0.22708 -0.59475,0.34603 -0.32441,0.11895 -0.65963,0.11895 -0.33522,0 -0.67044,-0.11895 -0.3244,-0.11895 -0.59474,-0.34603 -0.25953,-0.2379 -0.42173,-0.58393 -0.1622,-0.35685 -0.1622,-0.83265 z m 1.10298,4.06589 q 0,0.4001 0.21627,0.59475 0.22708,0.18383 0.52986,0.18383 0.30278,0 0.51905,-0.18383 0.22709,-0.19465 0.22709,-0.59475 v -4.06589 q 0,-0.4001 -0.22709,-0.58393 -0.21627,-0.19465 -0.51905,-0.19465 -0.30278,0 -0.52986,0.19465 -0.21627,0.18383 -0.21627,0.58393 z"
                   style="font-style:normal;font-variant:normal;font-weight:normal;font-stretch:normal;font-family:'DIN Condensed';-inkscape-font-specification:'DIN Condensed, ';fill:#ececec;stroke-width:0.21877018"
                   id="path67" />
                <path
                   d="m -269.15745,132.96203 q 0,0.37848 -0.14058,0.70288 -0.14058,0.32441 -0.38929,0.57312 -0.2379,0.2379 -0.5623,0.37847 -0.32441,0.14058 -0.69207,0.14058 -0.36766,0 -0.69207,-0.14058 -0.3244,-0.14057 -0.57311,-0.37847 -0.2379,-0.24871 -0.37848,-0.57312 -0.14057,-0.3244 -0.14057,-0.70288 v -5.96908 h 1.10298 v 5.86095 q 0,0.41091 0.19464,0.60556 0.19465,0.19464 0.48661,0.19464 0.29197,0 0.48661,-0.19464 0.19464,-0.19465 0.19464,-0.60556 v -5.86095 h 1.10299 z"
                   style="font-style:normal;font-variant:normal;font-weight:normal;font-stretch:normal;font-family:'DIN Condensed';-inkscape-font-specification:'DIN Condensed, ';fill:#ececec;stroke-width:0.21877018"
                   id="path69" />
                <path
                   d="m -267.39721,128.03105 h -1.276 v -1.0381 h 3.65498 v 1.0381 h -1.276 v 6.66115 h -1.10298 z"
                   style="font-style:normal;font-variant:normal;font-weight:normal;font-stretch:normal;font-family:'DIN Condensed';-inkscape-font-specification:'DIN Condensed, ';fill:#ececec;stroke-width:0.21877018"
                   id="path71" />
              </g>
              <g
                 aria-label="RJModules"
                 style="font-style:normal;font-weight:normal;font-size:10.81355px;line-height:1.25;font-family:sans-serif;letter-spacing:0px;word-spacing:0px;fill:#000000;fill-opacity:1;stroke:none;stroke-width:0.21877018"
                 id="text202-7-7"
                 transform="translate(0,-1.9171053)">
                <path
                   d="m -337.92427,346.5215 h 0.93428 q 0.43492,0 0.69264,-0.11276 0.25774,-0.12886 0.38661,-0.35439 0.14494,-0.22551 0.19329,-0.54767 0.0483,-0.33828 0.0483,-0.77319 0,-0.43493 -0.0483,-0.75709 -0.0483,-0.33826 -0.20941,-0.56378 -0.14494,-0.24163 -0.41881,-0.35438 -0.27384,-0.11276 -0.72487,-0.11276 h -0.85373 z m -1.64303,-5.12239 h 2.64173 q 2.89947,0 2.89947,3.3666 0,0.9987 -0.32216,1.72357 -0.30604,0.70876 -1.09535,1.14369 l 1.77189,5.23514 h -1.73967 l -1.53028,-4.89687 h -0.9826 v 4.89687 h -1.64303 z"
                   style="font-style:normal;font-variant:normal;font-weight:normal;font-stretch:normal;font-family:'DIN Condensed';-inkscape-font-specification:'DIN Condensed, ';stroke-width:0.32588577"
                   id="path79"
                   inkscape:connector-curvature="0" />
                <path
                   d="m -328.89112,350.16194 q 0,0.56379 -0.19329,1.07925 -0.1933,0.49935 -0.5638,0.88595 -0.35436,0.38659 -0.86983,0.61211 -0.51546,0.22551 -1.1759,0.22551 -0.78929,0 -1.32087,-0.33826 -0.51545,-0.35439 -0.82151,-0.69267 l 1.28866,-1.03091 q 0.17718,0.17719 0.40269,0.30605 0.24163,0.11276 0.49935,0.11276 0.14494,0 0.33828,-0.0483 0.1933,-0.0645 0.35438,-0.20941 0.17719,-0.16108 0.28994,-0.41881 0.12886,-0.27384 0.12886,-0.70877 v -8.53731 h 1.64303 z"
                   style="font-style:normal;font-variant:normal;font-weight:normal;font-stretch:normal;font-family:'DIN Condensed';-inkscape-font-specification:'DIN Condensed, ';stroke-width:0.32588577"
                   id="path81"
                   inkscape:connector-curvature="0" />
                <path
                   d="m -327.32887,341.39911 h 1.57858 l 2.11018,6.07277 h 0.0322 l 2.09406,-6.07277 h 1.5947 v 11.469 h -1.64302 v -6.97483 h -0.0322 l -1.62693,4.9291 h -0.82151 l -1.61081,-4.9291 h -0.0322 v 6.97483 h -1.64303 z"
                   style="font-style:normal;font-variant:normal;font-weight:normal;font-stretch:normal;font-family:'DIN Condensed';-inkscape-font-specification:'DIN Condensed, ';stroke-width:0.32588577"
                   id="path83"
                   inkscape:connector-curvature="0" />
                <path
                   d="m -318.60406,347.43966 q 0,-0.49935 0.0645,-0.91816 0.0645,-0.41881 0.24162,-0.74097 0.28995,-0.53157 0.83763,-0.85373 0.54768,-0.32216 1.30475,-0.32216 0.75709,0 1.30476,0.32216 0.54768,0.32216 0.83763,0.85373 0.17719,0.32216 0.24162,0.74097 0.0645,0.41881 0.0645,0.91816 v 2.69007 q 0,0.49936 -0.0645,0.91816 -0.0645,0.41881 -0.24162,0.74097 -0.28995,0.53158 -0.83763,0.85374 -0.54767,0.32216 -1.30476,0.32216 -0.75707,0 -1.30475,-0.32216 -0.54768,-0.32216 -0.83763,-0.85374 -0.17719,-0.32216 -0.24162,-0.74097 -0.0645,-0.4188 -0.0645,-0.91816 z m 1.64304,2.94779 q 0,0.46715 0.2094,0.70877 0.22551,0.22551 0.596,0.22551 0.3705,0 0.5799,-0.22551 0.22551,-0.24162 0.22551,-0.70877 v -3.20551 q 0,-0.46714 -0.22551,-0.69266 -0.2094,-0.24162 -0.5799,-0.24162 -0.37049,0 -0.596,0.24162 -0.2094,0.22552 -0.2094,0.69266 z"
                   style="font-style:normal;font-variant:normal;font-weight:normal;font-stretch:normal;font-family:'DIN Condensed';-inkscape-font-specification:'DIN Condensed, ';stroke-width:0.32588577"
                   id="path85"
                   inkscape:connector-curvature="0" />
                <path
                   d="m -310.86988,350.21026 q 0,0.49936 0.1933,0.80541 0.19329,0.30606 0.61211,0.30606 0.37049,0 0.596,-0.27384 0.22552,-0.28994 0.22552,-0.74097 v -3.1733 q 0,-0.3866 -0.24163,-0.62822 -0.22552,-0.25774 -0.57989,-0.25774 -0.46714,0 -0.64433,0.28996 -0.16108,0.28994 -0.16108,0.67653 z m 1.62693,1.91688 q -0.16109,0.17719 -0.30606,0.33827 -0.14494,0.14494 -0.32216,0.25773 -0.17719,0.11277 -0.40271,0.17719 -0.22551,0.0644 -0.53157,0.0644 -1.01481,0 -1.43362,-0.77319 -0.14494,-0.27384 -0.20941,-0.67655 -0.0645,-0.4027 -0.0645,-1.07925 v -3.10886 q 0,-0.88596 0.0483,-1.30477 0.0483,-0.4188 0.2094,-0.67654 0.20941,-0.32216 0.53157,-0.53156 0.33828,-0.20941 0.93428,-0.20941 0.48324,0 0.85372,0.22552 0.38661,0.20941 0.66044,0.6121 h 0.0322 v -4.04315 h 1.64303 v 11.46901 h -1.64303 z"
                   style="font-style:normal;font-variant:normal;font-weight:normal;font-stretch:normal;font-family:'DIN Condensed';-inkscape-font-specification:'DIN Condensed, ';stroke-width:0.32588577"
                   id="path87"
                   inkscape:connector-curvature="0" />
                <path
                   d="m -301.33914,352.86811 h -1.64303 v -0.78929 h -0.0322 q -0.25772,0.38659 -0.62822,0.64432 -0.35437,0.24162 -0.91816,0.24162 -0.30604,0 -0.6121,-0.0967 -0.30606,-0.11276 -0.54768,-0.35438 -0.24163,-0.24162 -0.3866,-0.6121 -0.14494,-0.3866 -0.14494,-0.93428 v -6.26607 h 1.64303 v 5.65397 q 0,0.45103 0.20941,0.70875 0.2094,0.25773 0.596,0.25773 0.46713,0 0.64432,-0.28994 0.17719,-0.28995 0.17719,-0.83763 v -5.49288 h 1.64303 z"
                   style="font-style:normal;font-variant:normal;font-weight:normal;font-stretch:normal;font-family:'DIN Condensed';-inkscape-font-specification:'DIN Condensed, ';stroke-width:0.32588577"
                   id="path89"
                   inkscape:connector-curvature="0" />
                <path
                   d="m -300.08799,341.39911 h 1.64302 v 9.16553 q 0,0.46715 0.16109,0.64433 0.17719,0.16109 0.64433,0.20941 v 1.54638 q -0.56378,0 -1.03093,-0.0967 -0.45103,-0.0806 -0.77319,-0.32216 -0.30604,-0.25773 -0.48323,-0.70876 -0.16109,-0.45103 -0.16109,-1.15978 z"
                   style="font-style:normal;font-variant:normal;font-weight:normal;font-stretch:normal;font-family:'DIN Condensed';-inkscape-font-specification:'DIN Condensed, ';stroke-width:0.32588577"
                   id="path91"
                   inkscape:connector-curvature="0" />
                <path
                   d="m -295.50447,349.40487 v 1.11145 q 0,0.3866 0.20941,0.596 0.22551,0.20941 0.596,0.20941 0.46713,0 0.61212,-0.27384 0.16107,-0.27383 0.19329,-0.54767 h 1.64303 q 0,0.51545 -0.17719,0.96648 -0.16108,0.45103 -0.48325,0.77319 -0.32217,0.33828 -0.77319,0.53158 -0.45103,0.19329 -1.01481,0.19329 -0.75709,0 -1.30477,-0.32216 -0.54767,-0.32216 -0.83761,-0.85374 -0.17719,-0.32216 -0.24162,-0.74097 -0.0645,-0.4188 -0.0645,-0.91816 v -2.69007 q 0,-0.49935 0.0645,-0.91816 0.0645,-0.41881 0.24162,-0.74097 0.28994,-0.53157 0.83761,-0.85373 0.54768,-0.32216 1.30477,-0.32216 0.56378,0 1.01481,0.19329 0.46714,0.19329 0.77319,0.54768 0.32217,0.33827 0.48325,0.80541 0.17719,0.46713 0.17719,0.9987 v 2.25515 z m 0,-1.28866 h 1.61082 v -0.93427 q 0,-0.46714 -0.22552,-0.69266 -0.20941,-0.24162 -0.57989,-0.24162 -0.37049,0 -0.596,0.24162 -0.20941,0.22552 -0.20941,0.69266 z"
                   style="font-style:normal;font-variant:normal;font-weight:normal;font-stretch:normal;font-family:'DIN Condensed';-inkscape-font-specification:'DIN Condensed, ';stroke-width:0.32588577"
                   id="path93"
                   inkscape:connector-curvature="0" />
                <path
                   d="m -288.07635,346.98863 q -0.0161,-0.41881 -0.27384,-0.6282 -0.24161,-0.20941 -0.56377,-0.20941 -0.38661,0 -0.596,0.25773 -0.20942,0.24162 -0.20942,0.56378 0,0.22551 0.11277,0.45103 0.11276,0.20941 0.5799,0.3866 l 0.96649,0.38659 q 0.91817,0.35438 1.25643,0.96648 0.35438,0.61212 0.35438,1.33699 0,0.51545 -0.19329,0.96648 -0.17719,0.43493 -0.49935,0.77319 -0.32217,0.33828 -0.7732,0.53158 -0.45102,0.19329 -0.9826,0.19329 -0.48325,0 -0.91816,-0.16107 -0.43492,-0.16109 -0.77319,-0.46715 -0.32216,-0.30604 -0.53157,-0.75707 -0.20941,-0.46715 -0.22552,-1.07925 h 1.54638 q 0.0483,0.33826 0.22552,0.62822 0.19329,0.28994 0.66044,0.28994 0.35438,0 0.62822,-0.22552 0.28994,-0.24161 0.28994,-0.66042 0,-0.33828 -0.17719,-0.5799 -0.17719,-0.24163 -0.64432,-0.41881 l -0.78931,-0.28995 q -0.77319,-0.28994 -1.22422,-0.85374 -0.43491,-0.57988 -0.43491,-1.40141 0,-0.51545 0.19329,-0.95036 0.1933,-0.45103 0.51546,-0.75709 0.33828,-0.32216 0.7732,-0.49935 0.43491,-0.17719 0.93427,-0.17719 0.49935,0 0.91816,0.19329 0.43492,0.17719 0.74098,0.49935 0.30605,0.30606 0.48324,0.75709 0.17719,0.43491 0.17719,0.93426 z"
                   style="font-style:normal;font-variant:normal;font-weight:normal;font-stretch:normal;font-family:'DIN Condensed';-inkscape-font-specification:'DIN Condensed, ';stroke-width:0.32588577"
                   id="path95"
                   inkscape:connector-curvature="0" />
              </g>
              <flowRoot
                 xml:space="preserve"
                 id="flowRoot102"
                 style="font-style:normal;font-weight:normal;font-size:40px;line-height:1.25;font-family:sans-serif;letter-spacing:0px;word-spacing:0px;fill:#000000;fill-opacity:1;stroke:none;"
                 transform="matrix(0.95855264,0,0,0.95855264,-388.80083,-5.5855677e-7)"><flowRegion
                   id="flowRegion104"
                   style="fill:#000000;"><rect
                     id="rect106"
                     width="118.92857"
                     height="41.42857"
                     x="183.57143"
                     y="98.214256"
                     style="fill:#000000;" /></flowRegion><flowPara
                   id="flowPara108">Cr</flowPara></flowRoot>              <flowRoot
                 xml:space="preserve"
                 id="flowRoot110"
                 style="font-style:normal;font-variant:normal;font-weight:normal;font-stretch:normal;font-size:40px;line-height:1.25;font-family:'DIN Condensed';-inkscape-font-specification:'DIN Condensed, ';letter-spacing:0px;word-spacing:0px;fill:#000000;fill-opacity:1;stroke:none"
                 transform="matrix(0.95855264,0,0,0.95855264,-504.51183,-19.718797)"><flowRegion
                   id="flowRegion112"
                   style="font-style:normal;font-variant:normal;font-weight:normal;font-stretch:normal;font-family:'DIN Condensed';-inkscape-font-specification:'DIN Condensed, '"><rect
                     id="rect114"
                     width="150.71428"
                     height="125"
                     x="179.28572"
                     y="101.78568"
                     style="font-style:normal;font-variant:normal;font-weight:normal;font-stretch:normal;font-family:'DIN Condensed';-inkscape-font-specification:'DIN Condensed, '" /></flowRegion><flowPara
                   id="flowPara116"
                   style="font-style:normal;font-variant:normal;font-weight:normal;font-stretch:normal;font-size:16px;font-family:'DIN Condensed';-inkscape-font-specification:'DIN Condensed, '">CRUSH</flowPara></flowRoot>            </g>
          </g>
        </g>
      </g>
    </g>
  </g>
</svg>
