<?xml version="1.0" encoding="UTF-8" standalone="no"?>
<!-- Created with Inkscape (http://www.inkscape.org/) -->

<svg
   xmlns:dc="http://purl.org/dc/elements/1.1/"
   xmlns:cc="http://creativecommons.org/ns#"
   xmlns:rdf="http://www.w3.org/1999/02/22-rdf-syntax-ns#"
   xmlns:svg="http://www.w3.org/2000/svg"
   xmlns="http://www.w3.org/2000/svg"
   xmlns:sodipodi="http://sodipodi.sourceforge.net/DTD/sodipodi-0.dtd"
   xmlns:inkscape="http://www.inkscape.org/namespaces/inkscape"
   width="10mm"
   height="10mm"
   viewBox="0 0 9.9999998 10"
   version="1.1"
   id="svg111794"
   inkscape:version="0.92.2 (5c3e80d, 2017-08-06)"
   sodipodi:docname="DrumplerRoundLargeBlackKnob.svg">
  <defs
     id="defs111788" />
  <sodipodi:namedview
     id="base"
     pagecolor="#ffffff"
     bordercolor="#666666"
     borderopacity="1.0"
     inkscape:pageopacity="0.0"
     inkscape:pageshadow="2"
     inkscape:zoom="11.2"
     inkscape:cx="-3.6022982"
     inkscape:cy="11.300967"
     inkscape:document-units="mm"
     inkscape:current-layer="layer1"
     showgrid="false"
     fit-margin-top="0"
     fit-margin-left="0"
     fit-margin-right="0"
     fit-margin-bottom="0"
     inkscape:window-width="1440"
     inkscape:window-height="851"
     inkscape:window-x="0"
     inkscape:window-y="23"
     inkscape:window-maximized="0" />
  <metadata
     id="metadata111791">
    <rdf:RDF>
      <cc:Work
         rdf:about="">
        <dc:format>image/svg+xml</dc:format>
        <dc:type
           rdf:resource="http://purl.org/dc/dcmitype/StillImage" />
        <dc:title></dc:title>
      </cc:Work>
    </rdf:RDF>
  </metadata>
  <g
     inkscape:label="Layer 1"
     inkscape:groupmode="layer"
     id="layer1"
     transform="translate(-127.95617,-65.562058)"
     style="display:inline">
    <path
       inkscape:connector-curvature="0"
       style="fill:#999999;fill-opacity:1;fill-rule:nonzero;stroke:none;stroke-width:0.27704859"
       d="m 137.92991,70.575184 c 0,2.75317 -2.23262,4.986874 -4.98687,4.986874 -2.75425,0 -4.98687,-2.233704 -4.98687,-4.986874 0,-2.754255 2.23262,-4.986876 4.98687,-4.986876 2.75425,0 4.98687,2.232621 4.98687,4.986876"
       id="path110590" />
    <path
       inkscape:connector-curvature="0"
       style="fill:#e6e6e6;fill-opacity:1;fill-rule:nonzero;stroke:none;stroke-width:0.26261896"
       d="m 137.66275,70.597197 c 0,2.609776 -2.11634,4.727141 -4.72714,4.727141 -2.61079,0 -4.72713,-2.117365 -4.72713,-4.727141 0,-2.610802 2.11634,-4.727142 4.72713,-4.727142 2.6108,0 4.72714,2.11634 4.72714,4.727142"
       id="path110590-4" />
    <path
       inkscape:connector-curvature="0"
       style="fill:#ffffff;fill-opacity:1;fill-rule:nonzero;stroke:#808080;stroke-width:0.15706693;stroke-linecap:butt;stroke-linejoin:round;stroke-miterlimit:4;stroke-dasharray:none;stroke-dashoffset:0;stroke-opacity:0.225;paint-order:stroke fill markers"
       d="m 137.08974,70.597194 c 0,2.305589 -1.86965,4.176163 -4.17617,4.176163 -2.30648,0 -4.17614,-1.870574 -4.17614,-4.176163 0,-2.306499 1.86966,-4.176165 4.17614,-4.176165 2.30652,0 4.17617,1.869666 4.17617,4.176165"
       id="path110590-4-5" />
    <path
       style="fill:#e7eaea;fill-opacity:1;stroke:#808080;stroke-width:0.07853346;stroke-linecap:butt;stroke-linejoin:miter;stroke-miterlimit:4;stroke-dasharray:none;stroke-opacity:1"
       d="m 129.03188,69.057467 7.7924,0.07653 c -0.70546,-1.854543 -2.27834,-2.521161 -3.67229,-2.754886 -2.33538,0.09439 -3.49402,1.36619 -4.12011,2.67836 z"
       id="path8086"
       inkscape:connector-curvature="0"
       sodipodi:nodetypes="ccccc" />
    <path
       inkscape:connector-curvature="0"
       style="fill:#666666;fill-opacity:1;fill-rule:evenodd;stroke:none;stroke-width:0.22319517"
       d="m 133.15199,66.385814 c -0.0588,-0.0071 -0.11868,-0.011 -0.17978,-0.011 -0.0623,0 -0.12222,0.0039 -0.1798,0.011 v 3.006602 h 0.35958 z m 0,0"
       id="path110592-7" />
    <path
       inkscape:connector-curvature="0"
       style="fill:#f4f4f4;fill-opacity:1;fill-rule:evenodd;stroke:none;stroke-width:0.21163134"
       d="m 133.08236,66.386157 c -0.0541,-0.007 -0.10929,-0.01074 -0.16556,-0.01074 -0.0574,0 -0.11256,0.0038 -0.16559,0.01074 v 2.935149 h 0.33115 z m 0,0"
       id="path110592" />
  </g>
  <g
     inkscape:groupmode="layer"
     id="layer2"
     inkscape:label="Layer 2"
     transform="translate(0,-2.6999998)"
     style="display:none" />
  <g
     inkscape:groupmode="layer"
     id="layer3"
     inkscape:label="Layer 3"
     transform="translate(0,-2.6999998)"
     style="display:none" />
</svg>
