<?xml version="1.0" encoding="UTF-8" standalone="no"?>
<!-- Created with Inkscape (http://www.inkscape.org/) -->

<svg
   xmlns:dc="http://purl.org/dc/elements/1.1/"
   xmlns:cc="http://creativecommons.org/ns#"
   xmlns:rdf="http://www.w3.org/1999/02/22-rdf-syntax-ns#"
   xmlns:svg="http://www.w3.org/2000/svg"
   xmlns="http://www.w3.org/2000/svg"
   xmlns:xlink="http://www.w3.org/1999/xlink"
   xmlns:sodipodi="http://sodipodi.sourceforge.net/DTD/sodipodi-0.dtd"
   xmlns:inkscape="http://www.inkscape.org/namespaces/inkscape"
   width="120.18037"
   height="379.99997"
   viewBox="0 0 31.797722 100.54167"
   version="1.1"
   id="svg4541"
   sodipodi:docname="KTF.svg"
   inkscape:version="0.92.2 (5c3e80d, 2017-08-06)">
  <defs
     id="defs4535">
    <linearGradient
       inkscape:collect="always"
       id="linearGradient879">
      <stop
         style="stop-color:#ececec;stop-opacity:1"
         offset="0"
         id="stop875" />
      <stop
         style="stop-color:#cccccc;stop-opacity:1"
         offset="1"
         id="stop877" />
    </linearGradient>
    <linearGradient
       inkscape:collect="always"
       xlink:href="#linearGradient879"
       id="linearGradient881"
       x1="-935.73442"
       y1="182.12695"
       x2="-935.73444"
       y2="363.98828"
       gradientUnits="userSpaceOnUse" />
  </defs>
  <sodipodi:namedview
     id="base"
     pagecolor="#ffffff"
     bordercolor="#666666"
     borderopacity="1.0"
     inkscape:pageopacity="0.0"
     inkscape:pageshadow="2"
     inkscape:zoom="0.9899495"
     inkscape:cx="-189.34654"
     inkscape:cy="130.49276"
     inkscape:document-units="mm"
     inkscape:current-layer="g13178"
     showgrid="false"
     fit-margin-top="0"
     fit-margin-left="0"
     fit-margin-right="0"
     fit-margin-bottom="0"
     inkscape:window-width="1440"
     inkscape:window-height="851"
     inkscape:window-x="215"
     inkscape:window-y="24"
     inkscape:window-maximized="0"
     units="px"
     showguides="false" />
  <metadata
     id="metadata4538">
    <rdf:RDF>
      <cc:Work
         rdf:about="">
        <dc:format>image/svg+xml</dc:format>
        <dc:type
           rdf:resource="http://purl.org/dc/dcmitype/StillImage" />
        <dc:title />
      </cc:Work>
    </rdf:RDF>
  </metadata>
  <g
     inkscape:label="Layer 1"
     inkscape:groupmode="layer"
     id="layer1"
     transform="translate(-49.620829,-52.061968)">
    <g
       transform="matrix(0.27602379,0,0,0.27602379,354.09618,57.736346)"
       id="g13122"
       style="stroke-width:0.9585526">
      <g
         transform="translate(-167.07644,-20.557569)"
         id="g13178"
         style="stroke-width:0.91882312">
        <path
           style="fill:url(#linearGradient881);fill-opacity:1;fill-rule:nonzero;stroke:none;stroke-width:0.91882312"
           d="m -935.73442,0.265625 h 114.66797 V 363.98828 h -114.66797 z m 0,0"
           id="path25057"
           inkscape:connector-curvature="0" />
        <path
           style="fill:#212121;fill-opacity:1;fill-rule:nonzero;stroke:none;stroke-width:0.91882312"
           d="m -828.96098,297.40625 c 0,-1.55859 -1.27735,-2.83203 -2.83594,-2.83203 h -21.77344 c -1.55859,0 -2.83593,1.27344 -2.83593,2.83203 v 33.08984 c 0,1.5586 1.27734,2.83594 2.83593,2.83594 h 21.77344 c 1.55859,0 2.83594,-1.27734 2.83594,-2.83594 z m 0,0"
           id="path25247"
           inkscape:connector-curvature="0" />
        <path
           inkscape:connector-curvature="0"
           id="path11938"
           d="m -849.13823,302.85642 c 0,0.28125 0.21875,0.5 0.5,0.5 0.28125,0 0.5,-0.21875 0.5,-0.5 v -1.35937 h 1.84375 v 1.35937 c 0,0.28125 0.21875,0.5 0.5,0.5 0.28125,0 0.5,-0.21875 0.5,-0.5 v -3.625 c 0,-0.28125 -0.21875,-0.5 -0.5,-0.5 -0.28125,0 -0.5,0.21875 -0.5,0.5 v 1.34375 h -1.84375 v -1.34375 c 0,-0.28125 -0.21875,-0.5 -0.5,-0.5 -0.28125,0 -0.5,0.21875 -0.5,0.5 z m 0,0"
           style="fill:#e6e6e6;fill-opacity:1;stroke:none;stroke-width:0.91882312" />
        <path
           inkscape:connector-curvature="0"
           id="path11934"
           d="m -843.94993,302.85642 c 0,0.28125 0.21875,0.5 0.5,0.5 0.28125,0 0.5,-0.21875 0.5,-0.5 v -0.89062 h 0.76562 c 1.01563,0 1.82813,-0.54688 1.82813,-1.60938 v -0.0156 c 0,-0.92188 -0.65625,-1.5625 -1.73438,-1.5625 h -1.35937 c -0.28125,0 -0.5,0.21875 -0.5,0.5 z m 1,-1.78125 v -1.39062 h 0.78125 c 0.5,0 0.8125,0.23437 0.8125,0.6875 v 0.0156 c 0,0.39063 -0.29688,0.6875 -0.79688,0.6875 z m 0,0"
           style="fill:#e6e6e6;fill-opacity:1;stroke:none;stroke-width:0.91882312" />
        <path
           inkscape:connector-curvature="0"
           id="path11930"
           d="m -839.39991,302.85642 c 0,0.28125 0.21875,0.5 0.5,0.5 0.28125,0 0.5,-0.21875 0.5,-0.5 v -1.29687 h 1.75 c 0.26562,0 0.45312,-0.20313 0.45312,-0.45313 0,-0.25 -0.1875,-0.45312 -0.45312,-0.45312 h -1.75 v -0.96875 h 2.04687 c 0.25,0 0.45313,-0.20313 0.45313,-0.45313 0,-0.25 -0.20313,-0.45312 -0.45313,-0.45312 h -2.54687 c -0.28125,0 -0.5,0.21875 -0.5,0.5 z m 0,0"
           style="fill:#e6e6e6;fill-opacity:1;stroke:none;stroke-width:0.91882312" />
        <path
           style="fill:#212121;fill-opacity:1;fill-rule:nonzero;stroke:none;stroke-width:0.91882312"
           d="m -864.67583,297.40625 c 0,-1.55859 -1.27734,-2.83203 -2.83593,-2.83203 h -21.77735 c -1.55859,0 -2.83203,1.27344 -2.83203,2.83203 v 33.08984 c 0,1.5586 1.27344,2.83594 2.83203,2.83594 h 21.77735 c 1.55859,0 2.83593,-1.27734 2.83593,-2.83594 z m 0,0"
           id="path25259"
           inkscape:connector-curvature="0" />
        <path
           inkscape:connector-curvature="0"
           id="path11926"
           d="m -884.35011,302.82517 c 0,0.28125 0.21875,0.5 0.5,0.5 h 2.35937 c 0.25,0 0.45313,-0.20312 0.45313,-0.45312 0,-0.25 -0.20313,-0.45313 -0.45313,-0.45313 h -1.85937 v -3.1875 c 0,-0.28125 -0.21875,-0.5 -0.5,-0.5 -0.28125,0 -0.5,0.21875 -0.5,0.5 z m 0,0"
           style="fill:#e6e6e6;fill-opacity:1;stroke:none;stroke-width:0.91882312" />
        <path
           inkscape:connector-curvature="0"
           id="path11922"
           d="m -880.17063,302.85642 c 0,0.28125 0.21875,0.5 0.5,0.5 0.28125,0 0.5,-0.21875 0.5,-0.5 v -0.89062 h 0.76562 c 1.01563,0 1.82813,-0.54688 1.82813,-1.60938 v -0.0156 c 0,-0.92188 -0.65625,-1.5625 -1.73438,-1.5625 h -1.35937 c -0.28125,0 -0.5,0.21875 -0.5,0.5 z m 1,-1.78125 v -1.39062 h 0.78125 c 0.5,0 0.8125,0.23437 0.8125,0.6875 v 0.0156 c 0,0.39063 -0.29688,0.6875 -0.79688,0.6875 z m 0,0"
           style="fill:#e6e6e6;fill-opacity:1;stroke:none;stroke-width:0.91882312" />
        <path
           inkscape:connector-curvature="0"
           id="path11918"
           d="m -875.61866,302.85642 c 0,0.28125 0.21875,0.5 0.5,0.5 0.28125,0 0.5,-0.21875 0.5,-0.5 v -1.29687 h 1.75 c 0.26562,0 0.45312,-0.20313 0.45312,-0.45313 0,-0.25 -0.1875,-0.45312 -0.45312,-0.45312 h -1.75 v -0.96875 h 2.04687 c 0.25,0 0.45313,-0.20313 0.45313,-0.45313 0,-0.25 -0.20313,-0.45312 -0.45313,-0.45312 h -2.54687 c -0.28125,0 -0.5,0.21875 -0.5,0.5 z m 0,0"
           style="fill:#e6e6e6;fill-opacity:1;stroke:none;stroke-width:0.91882312" />
        <path
           style="fill:none;stroke:#000000;stroke-width:0.47927633;stroke-linecap:round;stroke-linejoin:round;stroke-miterlimit:10;stroke-opacity:1"
           d="m -811.85712,245.32813 h 100.80079"
           id="path25367"
           inkscape:connector-curvature="0" />
        <path
           inkscape:connector-curvature="0"
           id="path11798"
           d="m -917.19441,302.9658 c 0,0.21875 0.1875,0.39062 0.40625,0.39062 0.21875,0 0.40625,-0.17187 0.40625,-0.39062 v -3.82813 c 0,-0.21875 -0.1875,-0.39062 -0.40625,-0.39062 -0.21875,0 -0.40625,0.17187 -0.40625,0.39062 z m 0,0"
           style="fill:#000000;fill-opacity:1;stroke:none;stroke-width:0.91882312" />
        <path
           inkscape:connector-curvature="0"
           id="path11794"
           d="m -914.97276,302.9658 c 0,0.21875 0.1875,0.39062 0.40625,0.39062 0.21875,0 0.39062,-0.17187 0.39062,-0.39062 v -2.89063 l 2.34375,3.03125 c 0.10938,0.14063 0.21875,0.25 0.40625,0.25 h 0.0312 c 0.21875,0 0.39063,-0.1875 0.39063,-0.40625 v -3.8125 c 0,-0.21875 -0.17188,-0.39062 -0.39063,-0.39062 -0.21875,0 -0.39062,0.17187 -0.39062,0.39062 v 2.79688 l -2.28125,-2.95313 c -0.10938,-0.14062 -0.21875,-0.23437 -0.40625,-0.23437 h -0.0937 c -0.21875,0 -0.40625,0.1875 -0.40625,0.40625 z m 0,0"
           style="fill:#000000;fill-opacity:1;stroke:none;stroke-width:0.91882312" />
        <path
           inkscape:connector-curvature="0"
           id="path11782"
           d="m -850.03236,189.91845 c 0,0.28125 0.20312,0.5 0.48437,0.5 0.28125,0 0.5,-0.21875 0.5,-0.5 v -4.70312 c 0,-0.26563 -0.21875,-0.48438 -0.5,-0.48438 -0.28125,0 -0.48437,0.21875 -0.48437,0.48438 z m 0,0"
           style="fill:#000000;fill-opacity:1;stroke:none;stroke-width:0.91882312" />
        <path
           style="fill:#ff0000;fill-opacity:0.20499998;stroke:#ff0000;stroke-width:0.8575027px;stroke-linecap:butt;stroke-linejoin:miter;stroke-opacity:0.31499999"
           d="m -935.73442,363.98828 h 114.8144 l 0.58675,-96.27825 z"
           id="path905"
           inkscape:connector-curvature="0"
           sodipodi:nodetypes="cccc" />
        <g
           aria-label="KTF"
           transform="matrix(0.95855264,0,0,0.95855264,-949.42317,-4.0437421)"
           style="font-style:normal;font-weight:normal;font-size:14.66666698px;line-height:1.25;font-family:sans-serif;letter-spacing:0px;word-spacing:0px;fill:#000000;fill-opacity:1;stroke:none;stroke-width:0.80924457"
           id="flowRoot923-7">
          <path
             d="m 62.628562,14.427734 h 2.448 v 7.8 h 0.048 l 3.576001,-7.8 h 2.447999 l -3.336,6.84 3.96,10.248 h -2.591999 l -2.784,-7.584 -1.320001,2.472 v 5.112 h -2.448 z"
             style="font-style:normal;font-variant:normal;font-weight:normal;font-stretch:normal;font-size:24px;font-family:'DIN Condensed';-inkscape-font-specification:'DIN Condensed, ';text-align:center;text-anchor:middle"
             id="path3317"
             inkscape:connector-curvature="0" />
          <path
             d="m 74.455313,16.731734 h -2.832001 v -2.304 h 8.112001 v 2.304 h -2.832001 v 14.784 h -2.447999 z"
             style="font-style:normal;font-variant:normal;font-weight:normal;font-stretch:normal;font-size:24px;font-family:'DIN Condensed';-inkscape-font-specification:'DIN Condensed, ';text-align:center;text-anchor:middle"
             id="path3319"
             inkscape:connector-curvature="0" />
          <path
             d="m 80.816062,14.427734 h 7.296001 v 2.304 h -4.848001 v 5.184 h 4.224 v 2.304 h -4.224 v 7.296 h -2.448 z"
             style="font-style:normal;font-variant:normal;font-weight:normal;font-stretch:normal;font-size:24px;font-family:'DIN Condensed';-inkscape-font-specification:'DIN Condensed, ';text-align:center;text-anchor:middle"
             id="path3321"
             inkscape:connector-curvature="0" />
        </g>
        <g
           aria-label="OCT"
           transform="matrix(0.95855264,0,0,0.95855264,-949.66525,24.875152)"
           style="font-style:normal;font-weight:normal;font-size:14.66666698px;line-height:1.25;font-family:sans-serif;letter-spacing:0px;word-spacing:0px;fill:#000000;fill-opacity:1;stroke:none;stroke-width:0.80924457"
           id="flowRoot923-7-0" />
        <g
           aria-label="FINE"
           transform="matrix(0.95855264,0,0,0.95855264,-979.91401,104.83557)"
           style="font-style:normal;font-weight:normal;font-size:14.66666698px;line-height:1.25;font-family:sans-serif;letter-spacing:0px;word-spacing:0px;fill:#000000;fill-opacity:1;stroke:none;stroke-width:0.80924457"
           id="flowRoot923-7-0-9">
          <path
             d="m 67.267406,16.264579 h 3.648 v 1.152 h -2.424 v 2.592 h 2.112 v 1.152 h -2.112 v 3.648 h -1.224 z"
             style="font-style:normal;font-variant:normal;font-weight:normal;font-stretch:normal;font-size:12px;font-family:'DIN Condensed';-inkscape-font-specification:'DIN Condensed, ';text-align:center;text-anchor:middle"
             id="path3331"
             inkscape:connector-curvature="0" />
          <path
             d="m 71.733094,16.264579 h 1.224 v 8.544 h -1.224 z"
             style="font-style:normal;font-variant:normal;font-weight:normal;font-stretch:normal;font-size:12px;font-family:'DIN Condensed';-inkscape-font-specification:'DIN Condensed, ';text-align:center;text-anchor:middle"
             id="path3333"
             inkscape:connector-curvature="0" />
          <path
             d="m 74.086594,16.264579 h 1.176 l 1.848,5.148 h 0.024 v -5.148 h 1.224 v 8.544 h -1.152 l -1.872,-5.136 h -0.024 v 5.136 h -1.224 z"
             style="font-style:normal;font-variant:normal;font-weight:normal;font-stretch:normal;font-size:12px;font-family:'DIN Condensed';-inkscape-font-specification:'DIN Condensed, ';text-align:center;text-anchor:middle"
             id="path3335"
             inkscape:connector-curvature="0" />
          <path
             d="m 79.454906,16.264579 h 3.648 v 1.152 h -2.424 v 2.508 h 2.112 v 1.152 h -2.112 v 2.508 h 2.424 v 1.224 h -3.648 z"
             style="font-style:normal;font-variant:normal;font-weight:normal;font-stretch:normal;font-size:12px;font-family:'DIN Condensed';-inkscape-font-specification:'DIN Condensed, ';text-align:center;text-anchor:middle"
             id="path3337"
             inkscape:connector-curvature="0" />
        </g>
        <g
           aria-label="RES"
           transform="matrix(0.95855264,0,0,0.95855264,-922.13373,104.91419)"
           style="font-style:normal;font-weight:normal;font-size:14.66666698px;line-height:1.25;font-family:sans-serif;letter-spacing:0px;word-spacing:0px;fill:#000000;fill-opacity:1;stroke:none;stroke-width:0.80924457"
           id="flowRoot923-7-0-9-7">
          <path
             d="m 69.592969,20.080579 h 0.696 q 0.324,0 0.516,-0.084 0.192,-0.096 0.288,-0.264 0.108,-0.168 0.144,-0.408 0.036,-0.252 0.036,-0.576 0,-0.324 -0.036,-0.564 -0.036,-0.252 -0.156,-0.42 -0.108,-0.18 -0.312,-0.264 -0.204,-0.084 -0.54,-0.084 h -0.636 z m -1.224,-3.816 h 1.968 q 2.16,0 2.16,2.508 0,0.744 -0.24,1.284 -0.228,0.528 -0.816,0.852 l 1.32,3.9 h -1.296 l -1.14,-3.648 h -0.732 v 3.648 h -1.224 z"
             style="font-style:normal;font-variant:normal;font-weight:normal;font-stretch:normal;font-size:12px;font-family:'DIN Condensed';-inkscape-font-specification:'DIN Condensed, ';text-align:center;text-anchor:middle"
             id="path3340" />
          <path
             d="m 73.478344,16.264579 h 3.648 v 1.152 h -2.424 v 2.508 h 2.112 v 1.152 h -2.112 v 2.508 h 2.424 v 1.224 h -3.648 z"
             style="font-style:normal;font-variant:normal;font-weight:normal;font-stretch:normal;font-size:12px;font-family:'DIN Condensed';-inkscape-font-specification:'DIN Condensed, ';text-align:center;text-anchor:middle"
             id="path3342" />
          <path
             d="m 81.868031,18.724579 h -1.224 v -0.276 q 0,-0.42 -0.204,-0.72 -0.192,-0.312 -0.66,-0.312 -0.252,0 -0.42,0.096 -0.156,0.096 -0.252,0.252 -0.084,0.144 -0.12,0.348 -0.036,0.192 -0.036,0.408 0,0.252 0.012,0.432 0.024,0.168 0.096,0.3 0.072,0.12 0.204,0.216 0.144,0.096 0.384,0.192 l 0.936,0.372 q 0.408,0.156 0.66,0.372 0.252,0.204 0.384,0.492 0.144,0.276 0.192,0.648 0.048,0.36 0.048,0.828 0,0.54 -0.108,1.008 -0.108,0.456 -0.36,0.792 -0.24,0.324 -0.648,0.516 -0.408,0.192 -0.996,0.192 -0.444,0 -0.828,-0.156 -0.384,-0.156 -0.66,-0.42 -0.276,-0.276 -0.444,-0.648 -0.156,-0.372 -0.156,-0.804 v -0.456 h 1.224 v 0.384 q 0,0.336 0.192,0.612 0.204,0.264 0.672,0.264 0.312,0 0.48,-0.084 0.18,-0.096 0.264,-0.252 0.096,-0.168 0.12,-0.408 0.024,-0.24 0.024,-0.528 0,-0.336 -0.024,-0.552 -0.024,-0.216 -0.108,-0.348 -0.072,-0.132 -0.216,-0.216 -0.132,-0.084 -0.36,-0.18 l -0.876,-0.36 q -0.792,-0.324 -1.068,-0.852 -0.264,-0.54 -0.264,-1.344 0,-0.48 0.132,-0.912 0.132,-0.432 0.384,-0.744 0.264,-0.312 0.66,-0.492 0.396,-0.192 0.924,-0.192 0.456,0 0.828,0.168 0.384,0.168 0.648,0.444 0.276,0.276 0.42,0.624 0.144,0.336 0.144,0.696 z"
             style="font-style:normal;font-variant:normal;font-weight:normal;font-stretch:normal;font-size:12px;font-family:'DIN Condensed';-inkscape-font-specification:'DIN Condensed, ';text-align:center;text-anchor:middle"
             id="path3344" />
        </g>
        <g
           aria-label="DRIVE"
           transform="matrix(0.95855264,0,0,0.95855264,-921.87218,167.61061)"
           style="font-style:normal;font-weight:normal;font-size:14.66666698px;line-height:1.25;font-family:sans-serif;letter-spacing:0px;word-spacing:0px;fill:#000000;fill-opacity:1;stroke:none;stroke-width:0.80924457"
           id="flowRoot923-7-0-9-0">
          <path
             d="m 64.595531,16.264579 h 1.812 q 1.044,0 1.596,0.588 0.552,0.576 0.552,1.62 v 3.996 q 0,1.2 -0.588,1.776 -0.576,0.564 -1.668,0.564 h -1.704 z m 1.224,7.392 h 0.564 q 0.516,0 0.732,-0.252 0.216,-0.264 0.216,-0.816 v -4.116 q 0,-0.504 -0.204,-0.78 -0.204,-0.276 -0.744,-0.276 h -0.564 z"
             style="font-style:normal;font-variant:normal;font-weight:normal;font-stretch:normal;font-size:12px;font-family:'DIN Condensed';-inkscape-font-specification:'DIN Condensed, ';text-align:center;text-anchor:middle"
             id="path3347" />
          <path
             d="m 70.928906,20.080579 h 0.696 q 0.324,0 0.516,-0.084 0.192,-0.096 0.288,-0.264 0.108,-0.168 0.144,-0.408 0.036,-0.252 0.036,-0.576 0,-0.324 -0.036,-0.564 -0.036,-0.252 -0.156,-0.42 -0.108,-0.18 -0.312,-0.264 -0.204,-0.084 -0.54,-0.084 h -0.636 z m -1.224,-3.816 h 1.968 q 2.16,0 2.16,2.508 0,0.744 -0.24,1.284 -0.228,0.528 -0.816,0.852 l 1.32,3.9 h -1.296 l -1.14,-3.648 h -0.732 v 3.648 h -1.224 z"
             style="font-style:normal;font-variant:normal;font-weight:normal;font-stretch:normal;font-size:12px;font-family:'DIN Condensed';-inkscape-font-specification:'DIN Condensed, ';text-align:center;text-anchor:middle"
             id="path3349" />
          <path
             d="m 74.850281,16.264579 h 1.224 v 8.544 h -1.224 z"
             style="font-style:normal;font-variant:normal;font-weight:normal;font-stretch:normal;font-size:12px;font-family:'DIN Condensed';-inkscape-font-specification:'DIN Condensed, ';text-align:center;text-anchor:middle"
             id="path3351" />
          <path
             d="m 79.651781,24.808579 h -1.08 l -1.74,-8.544 h 1.296 l 0.972,5.964 h 0.024 l 0.984,-5.964 h 1.296 z"
             style="font-style:normal;font-variant:normal;font-weight:normal;font-stretch:normal;font-size:12px;font-family:'DIN Condensed';-inkscape-font-specification:'DIN Condensed, ';text-align:center;text-anchor:middle"
             id="path3353" />
          <path
             d="m 82.126781,16.264579 h 3.648 v 1.152 h -2.424 v 2.508 h 2.112 v 1.152 h -2.112 v 2.508 h 2.424 v 1.224 h -3.648 z"
             style="font-style:normal;font-variant:normal;font-weight:normal;font-stretch:normal;font-size:12px;font-family:'DIN Condensed';-inkscape-font-specification:'DIN Condensed, ';text-align:center;text-anchor:middle"
             id="path3355" />
        </g>
        <g
           aria-label="IN"
           transform="matrix(0.95855264,0,0,0.95855264,-963.20193,172.53163)"
           style="font-style:normal;font-weight:normal;font-size:10.66666698px;line-height:1.25;font-family:sans-serif;letter-spacing:0px;word-spacing:0px;fill:#000000;fill-opacity:1;stroke:none;stroke-width:0.80924457"
           id="flowRoot923-7-0-9-3">
          <path
             d="m 72.096083,13.564591 h 1.088 v 7.594667 h -1.088 z"
             style="font-style:normal;font-variant:normal;font-weight:normal;font-stretch:normal;font-size:10.66666698px;font-family:'DIN Condensed';-inkscape-font-specification:'DIN Condensed, ';text-align:center;text-anchor:middle"
             id="path3358"
             inkscape:connector-curvature="0" />
          <path
             d="m 74.188083,13.564591 h 1.045334 l 1.642666,4.576 h 0.02133 v -4.576 h 1.088 v 7.594667 h -1.024 l -1.664,-4.565333 h -0.02133 v 4.565333 h -1.088 z"
             style="font-style:normal;font-variant:normal;font-weight:normal;font-stretch:normal;font-size:10.66666698px;font-family:'DIN Condensed';-inkscape-font-specification:'DIN Condensed, ';text-align:center;text-anchor:middle"
             id="path3360"
             inkscape:connector-curvature="0" />
        </g>
        <g
           aria-label="RES"
           transform="matrix(0.95855264,0,0,0.95855264,-950.80177,239.64395)"
           style="font-style:normal;font-weight:normal;font-size:10.66666698px;line-height:1.25;font-family:sans-serif;letter-spacing:0px;word-spacing:0px;fill:#000000;fill-opacity:1;stroke:none;stroke-width:0.80924457"
           id="flowRoot923-7-0-9-3-1">
          <path
             d="m 70.19375,16.956591 h 0.618667 q 0.288,0 0.458666,-0.07467 0.170667,-0.08533 0.256,-0.234667 0.096,-0.149333 0.128,-0.362667 0.032,-0.224 0.032,-0.512 0,-0.288 -0.032,-0.501333 -0.032,-0.224 -0.138666,-0.373333 -0.096,-0.16 -0.277334,-0.234667 -0.181333,-0.07467 -0.48,-0.07467 H 70.19375 Z m -1.088,-3.392 h 1.749333 q 1.92,0 1.92,2.229334 0,0.661333 -0.213333,1.141333 -0.202667,0.469333 -0.725333,0.757333 l 1.173333,3.466667 h -1.152 L 70.844417,17.916591 H 70.19375 v 3.242667 h -1.088 z"
             style="font-style:normal;font-variant:normal;font-weight:normal;font-stretch:normal;font-size:10.66666698px;font-family:'DIN Condensed';-inkscape-font-specification:'DIN Condensed, ';text-align:center;text-anchor:middle"
             id="path3363" />
          <path
             d="m 73.647417,13.564591 h 3.242667 v 1.024 h -2.154667 v 2.229334 h 1.877333 v 1.024 h -1.877333 v 2.229333 h 2.154667 v 1.088 h -3.242667 z"
             style="font-style:normal;font-variant:normal;font-weight:normal;font-stretch:normal;font-size:10.66666698px;font-family:'DIN Condensed';-inkscape-font-specification:'DIN Condensed, ';text-align:center;text-anchor:middle"
             id="path3365" />
          <path
             d="m 81.104917,15.751258 h -1.088 v -0.245333 q 0,-0.373334 -0.181333,-0.64 -0.170667,-0.277334 -0.586667,-0.277334 -0.224,0 -0.373333,0.08533 -0.138667,0.08533 -0.224,0.224 -0.07467,0.128 -0.106667,0.309333 -0.032,0.170667 -0.032,0.362667 0,0.224 0.01067,0.384 0.02133,0.149333 0.08533,0.266666 0.064,0.106667 0.181333,0.192 0.128,0.08533 0.341334,0.170667 l 0.832,0.330667 q 0.362666,0.138666 0.586666,0.330666 0.224,0.181334 0.341334,0.437334 0.128,0.245333 0.170666,0.576 0.04267,0.32 0.04267,0.736 0,0.48 -0.096,0.896 -0.096,0.405333 -0.32,0.704 -0.213333,0.288 -0.576,0.458666 -0.362667,0.170667 -0.885333,0.170667 -0.394667,0 -0.736,-0.138667 -0.341334,-0.138666 -0.586667,-0.373333 -0.245334,-0.245333 -0.394667,-0.576 -0.138667,-0.330667 -0.138667,-0.714667 v -0.405333 h 1.088001 v 0.341333 q 0,0.298667 0.170666,0.544 0.181334,0.234667 0.597334,0.234667 0.277333,0 0.426666,-0.07467 0.16,-0.08533 0.234667,-0.224 0.08533,-0.149333 0.106667,-0.362666 0.02133,-0.213334 0.02133,-0.469334 0,-0.298666 -0.02133,-0.490666 -0.02133,-0.192 -0.096,-0.309334 -0.064,-0.117333 -0.192,-0.192 -0.117334,-0.07467 -0.32,-0.16 l -0.778667,-0.32 q -0.704,-0.288 -0.949334,-0.757333 -0.234666,-0.48 -0.234666,-1.194667 0,-0.426666 0.117333,-0.810666 0.117333,-0.384 0.341333,-0.661334 0.234667,-0.277333 0.586667,-0.437333 0.352,-0.170667 0.821334,-0.170667 0.405333,0 0.736,0.149333 0.341333,0.149334 0.576,0.394667 0.245333,0.245334 0.373333,0.554667 0.128,0.298667 0.128,0.618667 z"
             style="font-style:normal;font-variant:normal;font-weight:normal;font-stretch:normal;font-size:10.66666698px;font-family:'DIN Condensed';-inkscape-font-specification:'DIN Condensed, ';text-align:center;text-anchor:middle"
             id="path3367" />
        </g>
        <g
           aria-label="DRIVE"
           transform="matrix(0.95855264,0,0,0.95855264,-914.00696,239.64395)"
           style="font-style:normal;font-weight:normal;font-size:10.66666698px;line-height:1.25;font-family:sans-serif;letter-spacing:0px;word-spacing:0px;fill:#000000;fill-opacity:1;stroke:none;stroke-width:0.80924457"
           id="flowRoot923-7-0-9-3-8">
          <path
             d="m 65.751583,13.564591 h 1.610667 q 0.928,0 1.418666,0.522667 0.490667,0.512 0.490667,1.44 v 3.552 q 0,1.066667 -0.522667,1.578667 -0.512,0.501333 -1.482666,0.501333 h -1.514667 z m 1.088,6.570667 h 0.501333 q 0.458667,0 0.650667,-0.224 0.192,-0.234667 0.192,-0.725333 v -3.658667 q 0,-0.448 -0.181333,-0.693333 -0.181334,-0.245334 -0.661334,-0.245334 h -0.501333 z"
             style="font-style:normal;font-variant:normal;font-weight:normal;font-stretch:normal;font-size:10.66666698px;font-family:'DIN Condensed';-inkscape-font-specification:'DIN Condensed, ';text-align:center;text-anchor:middle"
             id="path3370" />
          <path
             d="m 71.38125,16.956591 h 0.618667 q 0.288,0 0.458666,-0.07467 0.170667,-0.08533 0.256,-0.234667 0.096,-0.149333 0.128,-0.362667 0.032,-0.224 0.032,-0.512 0,-0.288 -0.032,-0.501333 -0.032,-0.224 -0.138666,-0.373333 -0.096,-0.16 -0.277334,-0.234667 -0.181333,-0.07467 -0.48,-0.07467 H 71.38125 Z m -1.088,-3.392 h 1.749333 q 1.92,0 1.92,2.229334 0,0.661333 -0.213333,1.141333 -0.202667,0.469333 -0.725333,0.757333 l 1.173333,3.466667 h -1.152 L 72.031917,17.916591 H 71.38125 v 3.242667 h -1.088 z"
             style="font-style:normal;font-variant:normal;font-weight:normal;font-stretch:normal;font-size:10.66666698px;font-family:'DIN Condensed';-inkscape-font-specification:'DIN Condensed, ';text-align:center;text-anchor:middle"
             id="path3372" />
          <path
             d="m 74.866917,13.564591 h 1.088 v 7.594667 h -1.088 z"
             style="font-style:normal;font-variant:normal;font-weight:normal;font-stretch:normal;font-size:10.66666698px;font-family:'DIN Condensed';-inkscape-font-specification:'DIN Condensed, ';text-align:center;text-anchor:middle"
             id="path3374" />
          <path
             d="m 79.134917,21.159258 h -0.96 l -1.546666,-7.594667 h 1.152 l 0.864,5.301334 h 0.02133 l 0.874667,-5.301334 h 1.152 z"
             style="font-style:normal;font-variant:normal;font-weight:normal;font-stretch:normal;font-size:10.66666698px;font-family:'DIN Condensed';-inkscape-font-specification:'DIN Condensed, ';text-align:center;text-anchor:middle"
             id="path3376" />
          <path
             d="m 81.334917,13.564591 h 3.242667 v 1.024 h -2.154667 v 2.229334 h 1.877333 v 1.024 h -1.877333 v 2.229333 h 2.154667 v 1.088 h -3.242667 z"
             style="font-style:normal;font-variant:normal;font-weight:normal;font-stretch:normal;font-size:10.66666698px;font-family:'DIN Condensed';-inkscape-font-specification:'DIN Condensed, ';text-align:center;text-anchor:middle"
             id="path3378" />
        </g>
        <path
           d="m -903.78717,351.00186 h 0.93428 q 0.43492,0 0.69264,-0.11276 0.25774,-0.12886 0.38661,-0.35439 0.14494,-0.22551 0.19329,-0.54767 0.0483,-0.33828 0.0483,-0.77319 0,-0.43493 -0.0483,-0.75709 -0.0483,-0.33826 -0.20941,-0.56378 -0.14494,-0.24163 -0.41881,-0.35438 -0.27384,-0.11276 -0.72487,-0.11276 h -0.85373 z m -1.64303,-5.12239 h 2.64173 q 2.89947,0 2.89947,3.3666 0,0.9987 -0.32216,1.72357 -0.30604,0.70876 -1.09535,1.14369 l 1.77189,5.23514 h -1.73967 l -1.53028,-4.89687 h -0.9826 v 4.89687 h -1.64303 z"
           style="font-style:normal;font-variant:normal;font-weight:normal;font-stretch:normal;font-size:10.81355px;line-height:1.25;font-family:'DIN Condensed';-inkscape-font-specification:'DIN Condensed, ';letter-spacing:0px;word-spacing:0px;fill:#000000;fill-opacity:1;stroke:none;stroke-width:0.32588577"
           id="path79"
           inkscape:connector-curvature="0" />
        <path
           d="m -894.75402,354.6423 q 0,0.56379 -0.19329,1.07925 -0.1933,0.49935 -0.5638,0.88595 -0.35436,0.38659 -0.86983,0.61211 -0.51546,0.22551 -1.1759,0.22551 -0.78929,0 -1.32087,-0.33826 -0.51545,-0.35439 -0.82151,-0.69267 l 1.28866,-1.03091 q 0.17718,0.17719 0.40269,0.30605 0.24163,0.11276 0.49935,0.11276 0.14494,0 0.33828,-0.0483 0.1933,-0.0645 0.35438,-0.20941 0.17719,-0.16108 0.28994,-0.41881 0.12886,-0.27384 0.12886,-0.70877 v -8.53731 h 1.64303 z"
           style="font-style:normal;font-variant:normal;font-weight:normal;font-stretch:normal;font-size:10.81355px;line-height:1.25;font-family:'DIN Condensed';-inkscape-font-specification:'DIN Condensed, ';letter-spacing:0px;word-spacing:0px;fill:#000000;fill-opacity:1;stroke:none;stroke-width:0.32588577"
           id="path81"
           inkscape:connector-curvature="0" />
        <path
           d="m -893.19177,345.87947 h 1.57858 l 2.11018,6.07277 h 0.0322 l 2.09406,-6.07277 h 1.5947 v 11.469 h -1.64302 v -6.97483 h -0.0322 l -1.62693,4.9291 h -0.82151 l -1.61081,-4.9291 h -0.0322 v 6.97483 h -1.64303 z"
           style="font-style:normal;font-variant:normal;font-weight:normal;font-stretch:normal;font-size:10.81355px;line-height:1.25;font-family:'DIN Condensed';-inkscape-font-specification:'DIN Condensed, ';letter-spacing:0px;word-spacing:0px;fill:#000000;fill-opacity:1;stroke:none;stroke-width:0.32588577"
           id="path83"
           inkscape:connector-curvature="0" />
        <path
           d="m -884.46696,351.92002 q 0,-0.49935 0.0645,-0.91816 0.0645,-0.41881 0.24162,-0.74097 0.28995,-0.53157 0.83763,-0.85373 0.54768,-0.32216 1.30475,-0.32216 0.75709,0 1.30476,0.32216 0.54768,0.32216 0.83763,0.85373 0.17719,0.32216 0.24162,0.74097 0.0645,0.41881 0.0645,0.91816 v 2.69007 q 0,0.49936 -0.0645,0.91816 -0.0645,0.41881 -0.24162,0.74097 -0.28995,0.53158 -0.83763,0.85374 -0.54767,0.32216 -1.30476,0.32216 -0.75707,0 -1.30475,-0.32216 -0.54768,-0.32216 -0.83763,-0.85374 -0.17719,-0.32216 -0.24162,-0.74097 -0.0645,-0.4188 -0.0645,-0.91816 z m 1.64304,2.94779 q 0,0.46715 0.2094,0.70877 0.22551,0.22551 0.596,0.22551 0.3705,0 0.5799,-0.22551 0.22551,-0.24162 0.22551,-0.70877 v -3.20551 q 0,-0.46714 -0.22551,-0.69266 -0.2094,-0.24162 -0.5799,-0.24162 -0.37049,0 -0.596,0.24162 -0.2094,0.22552 -0.2094,0.69266 z"
           style="font-style:normal;font-variant:normal;font-weight:normal;font-stretch:normal;font-size:10.81355px;line-height:1.25;font-family:'DIN Condensed';-inkscape-font-specification:'DIN Condensed, ';letter-spacing:0px;word-spacing:0px;fill:#000000;fill-opacity:1;stroke:none;stroke-width:0.32588577"
           id="path85"
           inkscape:connector-curvature="0" />
        <path
           d="m -876.73278,354.69062 q 0,0.49936 0.1933,0.80541 0.19329,0.30606 0.61211,0.30606 0.37049,0 0.596,-0.27384 0.22552,-0.28994 0.22552,-0.74097 v -3.1733 q 0,-0.3866 -0.24163,-0.62822 -0.22552,-0.25774 -0.57989,-0.25774 -0.46714,0 -0.64433,0.28996 -0.16108,0.28994 -0.16108,0.67653 z m 1.62693,1.91688 q -0.16109,0.17719 -0.30606,0.33827 -0.14494,0.14494 -0.32216,0.25773 -0.17719,0.11277 -0.40271,0.17719 -0.22551,0.0644 -0.53157,0.0644 -1.01481,0 -1.43362,-0.77319 -0.14494,-0.27384 -0.20941,-0.67655 -0.0645,-0.4027 -0.0645,-1.07925 v -3.10886 q 0,-0.88596 0.0483,-1.30477 0.0483,-0.4188 0.2094,-0.67654 0.20941,-0.32216 0.53157,-0.53156 0.33828,-0.20941 0.93428,-0.20941 0.48324,0 0.85372,0.22552 0.38661,0.20941 0.66044,0.6121 h 0.0322 v -4.04315 h 1.64302 v 11.46901 h -1.64302 z"
           style="font-style:normal;font-variant:normal;font-weight:normal;font-stretch:normal;font-size:10.81355px;line-height:1.25;font-family:'DIN Condensed';-inkscape-font-specification:'DIN Condensed, ';letter-spacing:0px;word-spacing:0px;fill:#000000;fill-opacity:1;stroke:none;stroke-width:0.32588577"
           id="path87"
           inkscape:connector-curvature="0" />
        <path
           d="m -867.20204,357.34847 h -1.64303 v -0.78929 h -0.0322 q -0.25772,0.38659 -0.62822,0.64432 -0.35437,0.24162 -0.91816,0.24162 -0.30604,0 -0.6121,-0.0967 -0.30606,-0.11276 -0.54768,-0.35438 -0.24163,-0.24162 -0.3866,-0.6121 -0.14494,-0.3866 -0.14494,-0.93428 v -6.26607 h 1.64303 v 5.65397 q 0,0.45103 0.20941,0.70875 0.2094,0.25773 0.596,0.25773 0.46713,0 0.64432,-0.28994 0.17719,-0.28995 0.17719,-0.83763 v -5.49288 h 1.64303 z"
           style="font-style:normal;font-variant:normal;font-weight:normal;font-stretch:normal;font-size:10.81355px;line-height:1.25;font-family:'DIN Condensed';-inkscape-font-specification:'DIN Condensed, ';letter-spacing:0px;word-spacing:0px;fill:#000000;fill-opacity:1;stroke:none;stroke-width:0.32588577"
           id="path89"
           inkscape:connector-curvature="0" />
        <path
           d="m -865.95089,345.87947 h 1.64302 v 9.16553 q 0,0.46715 0.16109,0.64433 0.17719,0.16109 0.64433,0.20941 v 1.54638 q -0.56378,0 -1.03093,-0.0967 -0.45103,-0.0806 -0.77319,-0.32216 -0.30604,-0.25773 -0.48323,-0.70876 -0.16109,-0.45103 -0.16109,-1.15978 z"
           style="font-style:normal;font-variant:normal;font-weight:normal;font-stretch:normal;font-size:10.81355px;line-height:1.25;font-family:'DIN Condensed';-inkscape-font-specification:'DIN Condensed, ';letter-spacing:0px;word-spacing:0px;fill:#000000;fill-opacity:1;stroke:none;stroke-width:0.32588577"
           id="path91"
           inkscape:connector-curvature="0" />
        <path
           d="m -861.36737,353.88523 v 1.11145 q 0,0.3866 0.20941,0.596 0.22551,0.20941 0.596,0.20941 0.46713,0 0.61212,-0.27384 0.16107,-0.27383 0.19329,-0.54767 h 1.64303 q 0,0.51545 -0.17719,0.96648 -0.16108,0.45103 -0.48325,0.77319 -0.32217,0.33828 -0.77319,0.53158 -0.45103,0.19329 -1.01481,0.19329 -0.75709,0 -1.30477,-0.32216 -0.54767,-0.32216 -0.83761,-0.85374 -0.17719,-0.32216 -0.24162,-0.74097 -0.0645,-0.4188 -0.0645,-0.91816 v -2.69007 q 0,-0.49935 0.0645,-0.91816 0.0645,-0.41881 0.24162,-0.74097 0.28994,-0.53157 0.83761,-0.85373 0.54768,-0.32216 1.30477,-0.32216 0.56378,0 1.01481,0.19329 0.46714,0.19329 0.77319,0.54768 0.32217,0.33827 0.48325,0.80541 0.17719,0.46713 0.17719,0.9987 v 2.25515 z m 0,-1.28866 h 1.61082 v -0.93427 q 0,-0.46714 -0.22552,-0.69266 -0.20941,-0.24162 -0.57989,-0.24162 -0.37049,0 -0.596,0.24162 -0.20941,0.22552 -0.20941,0.69266 z"
           style="font-style:normal;font-variant:normal;font-weight:normal;font-stretch:normal;font-size:10.81355px;line-height:1.25;font-family:'DIN Condensed';-inkscape-font-specification:'DIN Condensed, ';letter-spacing:0px;word-spacing:0px;fill:#000000;fill-opacity:1;stroke:none;stroke-width:0.32588577"
           id="path93"
           inkscape:connector-curvature="0" />
        <path
           d="m -853.93925,351.46899 q -0.0161,-0.41881 -0.27384,-0.6282 -0.24161,-0.20941 -0.56377,-0.20941 -0.38661,0 -0.596,0.25773 -0.20942,0.24162 -0.20942,0.56378 0,0.22551 0.11277,0.45103 0.11276,0.20941 0.5799,0.3866 l 0.96649,0.38659 q 0.91817,0.35438 1.25643,0.96648 0.35438,0.61212 0.35438,1.33699 0,0.51545 -0.19329,0.96648 -0.17719,0.43493 -0.49935,0.77319 -0.32217,0.33828 -0.7732,0.53158 -0.45102,0.19329 -0.9826,0.19329 -0.48325,0 -0.91816,-0.16107 -0.43492,-0.16109 -0.77319,-0.46715 -0.32216,-0.30604 -0.53157,-0.75707 -0.20941,-0.46715 -0.22552,-1.07925 h 1.54638 q 0.0483,0.33826 0.22552,0.62822 0.19329,0.28994 0.66044,0.28994 0.35438,0 0.62822,-0.22552 0.28994,-0.24161 0.28994,-0.66042 0,-0.33828 -0.17719,-0.5799 -0.17719,-0.24163 -0.64432,-0.41881 l -0.78931,-0.28995 q -0.77319,-0.28994 -1.22422,-0.85374 -0.43491,-0.57988 -0.43491,-1.40141 0,-0.51545 0.19329,-0.95036 0.1933,-0.45103 0.51546,-0.75709 0.33828,-0.32216 0.7732,-0.49935 0.43491,-0.17719 0.93427,-0.17719 0.49935,0 0.91816,0.19329 0.43492,0.17719 0.74098,0.49935 0.30605,0.30606 0.48324,0.75709 0.17719,0.43491 0.17719,0.93426 z"
           style="font-style:normal;font-variant:normal;font-weight:normal;font-stretch:normal;font-size:10.81355px;line-height:1.25;font-family:'DIN Condensed';-inkscape-font-specification:'DIN Condensed, ';letter-spacing:0px;word-spacing:0px;fill:#000000;fill-opacity:1;stroke:none;stroke-width:0.32588577"
           id="path95"
           inkscape:connector-curvature="0" />
        <path
           style="fill:#212121;fill-opacity:1;fill-rule:nonzero;stroke:none;stroke-width:0.91882312"
           d="m -900.71851,297.59438 c 0,-1.55859 -1.2773,-2.83203 -2.8359,-2.83203 h -21.7773 c -1.5586,0 -2.8321,1.27344 -2.8321,2.83203 v 33.08984 c 0,1.5586 1.2735,2.83593 2.8321,2.83593 h 21.7773 c 1.5586,0 2.8359,-1.27733 2.8359,-2.83593 z m 0,0"
           id="path25259-9"
           inkscape:connector-curvature="0" />
        <g
           aria-label="OCTAVE"
           transform="matrix(0.95855264,0,0,0.95855264,-950.98235,24.709798)"
           style="font-style:normal;font-weight:normal;font-size:14.66666698px;line-height:1.25;font-family:sans-serif;letter-spacing:0px;word-spacing:0px;fill:#000000;fill-opacity:1;stroke:none;stroke-width:0.80924457"
           id="flowRoot923">
          <path
             d="m 57.64075,16.115734 q 0,-0.688 0.24,-1.216 0.24,-0.528 0.624,-0.864 0.4,-0.352 0.88,-0.528 0.496,-0.176 0.992,-0.176 0.496,0 0.976,0.176 0.496,0.176 0.88,0.528 0.4,0.336 0.64,0.864 0.24,0.528 0.24,1.216 v 6.016 q 0,0.704 -0.24,1.232 -0.24,0.512 -0.64,0.864 -0.384,0.336 -0.88,0.512 -0.48,0.176 -0.976,0.176 -0.496,0 -0.992,-0.176 -0.48,-0.176 -0.88,-0.512 -0.384,-0.352 -0.624,-0.864 -0.24,-0.528 -0.24,-1.232 z m 1.632,6.016 q 0,0.592 0.32,0.88 0.336,0.272 0.784,0.272 0.448,0 0.768,-0.272 0.336,-0.288 0.336,-0.88 v -6.016 q 0,-0.592 -0.336,-0.864 -0.32,-0.288 -0.768,-0.288 -0.448,0 -0.784,0.288 -0.32,0.272 -0.32,0.864 z"
             style="font-style:normal;font-variant:normal;font-weight:normal;font-stretch:normal;font-size:16px;font-family:'DIN Condensed';-inkscape-font-specification:'DIN Condensed, ';text-align:center;text-anchor:middle"
             id="path3516"
             inkscape:connector-curvature="0" />
          <path
             d="m 69.73325,22.275734 q 0,0.528 -0.208,1.008 -0.192,0.48 -0.544,0.848 -0.352,0.352 -0.832,0.576 -0.464,0.208 -1.008,0.208 -0.464,0 -0.944,-0.128 -0.48,-0.128 -0.864,-0.432 -0.384,-0.32 -0.64,-0.832 -0.24,-0.512 -0.24,-1.296 v -6.272 q 0,-0.56 0.192,-1.04 0.192,-0.48 0.544,-0.832 0.352,-0.352 0.832,-0.544 0.496,-0.208 1.088,-0.208 0.56,0 1.04,0.208 0.48,0.192 0.832,0.56 0.352,0.352 0.544,0.864 0.208,0.496 0.208,1.088 v 0.64 h -1.632 v -0.544 q 0,-0.48 -0.272,-0.832 -0.272,-0.352 -0.736,-0.352 -0.608,0 -0.816,0.384 -0.192,0.368 -0.192,0.944 v 5.824 q 0,0.496 0.208,0.832 0.224,0.336 0.784,0.336 0.16,0 0.336,-0.048 0.192,-0.064 0.336,-0.192 0.16,-0.128 0.256,-0.352 0.096,-0.224 0.096,-0.56 v -0.56 h 1.632 z"
             style="font-style:normal;font-variant:normal;font-weight:normal;font-stretch:normal;font-size:16px;font-family:'DIN Condensed';-inkscape-font-specification:'DIN Condensed, ';text-align:center;text-anchor:middle"
             id="path3518"
             inkscape:connector-curvature="0" />
          <path
             d="m 72.12125,14.963734 h -1.888 v -1.536 h 5.408 v 1.536 h -1.888 v 9.856 h -1.632 z"
             style="font-style:normal;font-variant:normal;font-weight:normal;font-stretch:normal;font-size:16px;font-family:'DIN Condensed';-inkscape-font-specification:'DIN Condensed, ';text-align:center;text-anchor:middle"
             id="path3520"
             inkscape:connector-curvature="0" />
          <path
             d="m 77.98275,16.707734 h -0.032 l -0.8,4.128 h 1.632 z m -0.688,-3.28 h 1.36 l 2.544,11.392 h -1.632 l -0.48,-2.448 h -2.224 l -0.48,2.448 h -1.632 z"
             style="font-style:normal;font-variant:normal;font-weight:normal;font-stretch:normal;font-size:16px;font-family:'DIN Condensed';-inkscape-font-specification:'DIN Condensed, ';text-align:center;text-anchor:middle"
             id="path3522"
             inkscape:connector-curvature="0" />
          <path
             d="m 84.593,24.819734 h -1.44 l -2.32,-11.392 h 1.728 l 1.296,7.952 h 0.032 l 1.312,-7.952 h 1.728 z"
             style="font-style:normal;font-variant:normal;font-weight:normal;font-stretch:normal;font-size:16px;font-family:'DIN Condensed';-inkscape-font-specification:'DIN Condensed, ';text-align:center;text-anchor:middle"
             id="path3524"
             inkscape:connector-curvature="0" />
          <path
             d="m 87.893,13.427734 h 4.864 v 1.536 h -3.232 v 3.344 h 2.816 v 1.536 h -2.816 v 3.344 h 3.232 v 1.632 h -4.864 z"
             style="font-style:normal;font-variant:normal;font-weight:normal;font-stretch:normal;font-size:16px;font-family:'DIN Condensed';-inkscape-font-specification:'DIN Condensed, ';text-align:center;text-anchor:middle"
             id="path3526"
             inkscape:connector-curvature="0" />
        </g>
      </g>
    </g>
  </g>
</svg>
