<?xml version="1.0" encoding="UTF-8" standalone="no"?>
<!-- Created with Inkscape (http://www.inkscape.org/) -->

<svg
   xmlns:dc="http://purl.org/dc/elements/1.1/"
   xmlns:cc="http://creativecommons.org/ns#"
   xmlns:rdf="http://www.w3.org/1999/02/22-rdf-syntax-ns#"
   xmlns:svg="http://www.w3.org/2000/svg"
   xmlns="http://www.w3.org/2000/svg"
   xmlns:xlink="http://www.w3.org/1999/xlink"
   xmlns:sodipodi="http://sodipodi.sourceforge.net/DTD/sodipodi-0.dtd"
   xmlns:inkscape="http://www.inkscape.org/namespaces/inkscape"
   width="7.9995098mm"
   height="7.9995222mm"
   viewBox="0 0 7.9995093 7.9995222"
   version="1.1"
   id="svg111794"
   inkscape:version="0.92.2 (5c3e80d, 2017-08-06)"
   sodipodi:docname="KTFRoundSmallBlackKnob.svg">
  <defs
     id="defs111788">
    <linearGradient
       inkscape:collect="always"
       xlink:href="#linearGradient1675"
       id="linearGradient1677"
       x1="129.04079"
       y1="64.142372"
       x2="128.87308"
       y2="71.394783"
       gradientUnits="userSpaceOnUse"
       gradientTransform="matrix(0.80167903,0,0,0.80167903,65.514771,14.812439)" />
    <linearGradient
       inkscape:collect="always"
       id="linearGradient1675">
      <stop
         style="stop-color:#666666;stop-opacity:1"
         offset="0"
         id="stop1671" />
      <stop
         style="stop-color:#1a1a1a;stop-opacity:1"
         offset="1"
         id="stop1673" />
    </linearGradient>
  </defs>
  <sodipodi:namedview
     id="base"
     pagecolor="#ffffff"
     bordercolor="#666666"
     borderopacity="1.0"
     inkscape:pageopacity="0.0"
     inkscape:pageshadow="2"
     inkscape:zoom="15.839192"
     inkscape:cx="17.550523"
     inkscape:cy="14.608425"
     inkscape:document-units="mm"
     inkscape:current-layer="layer1"
     showgrid="false"
     fit-margin-top="0"
     fit-margin-left="0"
     fit-margin-right="0"
     fit-margin-bottom="0"
     inkscape:window-width="1440"
     inkscape:window-height="851"
     inkscape:window-x="0"
     inkscape:window-y="23"
     inkscape:window-maximized="0" />
  <metadata
     id="metadata111791">
    <rdf:RDF>
      <cc:Work
         rdf:about="">
        <dc:format>image/svg+xml</dc:format>
        <dc:type
           rdf:resource="http://purl.org/dc/dcmitype/StillImage" />
        <dc:title></dc:title>
      </cc:Work>
    </rdf:RDF>
  </metadata>
  <g
     inkscape:label="Layer 1"
     inkscape:groupmode="layer"
     id="layer1"
     transform="translate(-168.09312,-67.39659)">
    <path
       inkscape:connector-curvature="0"
       style="display:inline;fill:#1a1a1a;fill-opacity:1;fill-rule:nonzero;stroke:none;stroke-width:0.22210404"
       d="m 176.09029,71.391083 c 0,2.207158 -1.78984,3.997872 -3.99787,3.997872 -2.20803,0 -3.99787,-1.790714 -3.99787,-3.997872 0,-2.208029 1.78984,-3.997874 3.99787,-3.997874 2.20803,0 3.99787,1.789845 3.99787,3.997874"
       id="path110590" />
    <path
       inkscape:connector-curvature="0"
       style="display:inline;fill:#333333;fill-opacity:1;fill-rule:nonzero;stroke:none;stroke-width:0.21053611"
       d="m 175.87611,71.40873 c 0,2.092203 -1.69662,3.78965 -3.78964,3.78965 -2.09303,0 -3.78965,-1.697447 -3.78965,-3.78965 0,-2.093025 1.69662,-3.78965 3.78965,-3.78965 2.09302,0 3.78964,1.696625 3.78964,3.78965"
       id="path110590-4" />
    <path
       inkscape:connector-curvature="0"
       style="display:inline;fill:#1a1a1a;fill-opacity:1;fill-rule:nonzero;stroke:#808080;stroke-width:0.12591727;stroke-linecap:butt;stroke-linejoin:round;stroke-miterlimit:4;stroke-dasharray:none;stroke-dashoffset:0;stroke-opacity:0.225;paint-order:stroke fill markers"
       d="m 175.41673,71.408727 c 0,1.848343 -1.49885,3.347944 -3.34793,3.347944 -1.84906,0 -3.34792,-1.499601 -3.34792,-3.347944 0,-1.849072 1.49886,-3.347943 3.34792,-3.347943 1.84908,0 3.34793,1.498871 3.34793,3.347943"
       id="path110590-4-5" />
    <path
       style="display:inline;fill:url(#linearGradient1677);fill-opacity:1;stroke:#4d4d4d;stroke-width:0.06295862;stroke-linecap:butt;stroke-linejoin:miter;stroke-miterlimit:4;stroke-dasharray:none;stroke-opacity:1"
       d="m 168.95692,70.174361 6.247,0.06134 c -0.56554,-1.48675 -1.82649,-2.021163 -2.94399,-2.208535 -1.87222,0.07567 -2.80109,1.095245 -3.30301,2.147184 z"
       id="path8086"
       inkscape:connector-curvature="0"
       sodipodi:nodetypes="ccccc" />
    <path
       inkscape:connector-curvature="0"
       style="display:inline;fill:#666666;fill-opacity:1;fill-rule:evenodd;stroke:none;stroke-width:0.17893086"
       d="m 172.25993,68.032552 c -0.0472,-0.0057 -0.0952,-0.0089 -0.14412,-0.0089 -0.0499,0 -0.0979,0.0032 -0.14415,0.0089 v 2.41033 h 0.28827 z m 0,0"
       id="path110592-7" />
    <path
       inkscape:connector-curvature="0"
       style="display:inline;fill:#f9f9f9;fill-opacity:1;fill-rule:evenodd;stroke:none;stroke-width:0.16966042"
       d="m 172.20411,68.032827 c -0.0433,-0.0056 -0.0875,-0.0087 -0.13274,-0.0087 -0.0461,0 -0.0902,0.0031 -0.13273,0.0087 v 2.353048 h 0.26547 z m 0,0"
       id="path110592" />
  </g>
</svg>
